<?xml version="1.0" standalone="no"?>
<!DOCTYPE svg PUBLIC "-//W3C//DTD SVG 20010904//EN"
 "http://www.w3.org/TR/2001/REC-SVG-20010904/DTD/svg10.dtd">
<svg version="1.0" xmlns="http://www.w3.org/2000/svg"
 width="600.000000pt" height="600.000000pt" viewBox="0 0 600.000000 600.000000"
 preserveAspectRatio="xMidYMid meet">
<g transform="translate(0.000000,600.000000) scale(0.100000,-0.100000)"
fill="#000000" stroke="none">
<path d="M2895 5978 c-21 -5 -42 -12 -45 -17 -3 -4 -25 -18 -50 -29 -25 -12
-52 -26 -60 -31 -8 -5 -69 -36 -135 -69 -66 -33 -136 -69 -155 -81 -19 -11
-45 -21 -58 -21 -13 0 -21 -3 -19 -8 3 -4 -32 -25 -76 -47 -45 -22 -87 -45
-93 -50 -6 -6 -30 -17 -53 -25 -22 -7 -41 -17 -41 -21 0 -4 -20 -15 -45 -25
-25 -9 -45 -21 -45 -25 0 -5 -7 -9 -15 -9 -9 0 -32 -10 -53 -23 -20 -13 -53
-30 -72 -37 -19 -8 -39 -18 -45 -23 -5 -4 -48 -27 -95 -51 -247 -126 -295
-152 -298 -158 -2 -5 -12 -8 -22 -8 -10 0 -25 -6 -32 -13 -7 -7 -29 -19 -48
-27 -19 -7 -43 -20 -52 -28 -10 -8 -18 -11 -18 -6 0 5 -4 4 -8 -2 -4 -6 -29
-21 -57 -34 -27 -14 -62 -33 -77 -43 -16 -10 -28 -16 -28 -13 0 4 -18 -5 -39
-18 -21 -14 -42 -22 -45 -19 -3 4 -6 1 -6 -6 0 -7 -4 -9 -10 -6 -5 3 -10 2
-10 -4 0 -10 -38 -27 -52 -23 -5 1 -8 -2 -8 -8 0 -5 -6 -10 -14 -10 -7 0 -19
-7 -26 -15 -7 -8 -21 -15 -31 -15 -9 0 -24 -6 -31 -13 -13 -14 -21 -17 -38
-17 -5 0 -21 -12 -35 -26 -21 -21 -25 -32 -20 -53 15 -59 22 -61 212 -61 l173
0 1 -62 c1 -35 2 -427 3 -873 1 -735 3 -813 18 -840 9 -16 29 -57 45 -89 29
-62 100 -141 152 -172 17 -10 31 -22 31 -27 0 -4 5 -5 10 -2 6 3 10 2 10 -3 0
-5 6 -9 13 -9 6 -1 36 -10 65 -21 29 -11 54 -20 55 -20 22 0 129 -33 123 -39
-2 -3 -292 -4 -642 -4 -618 1 -710 -2 -698 -20 2 -5 -4 -16 -16 -26 -26 -22
-25 -34 3 -54 20 -15 61 -16 339 -15 182 0 314 -3 311 -8 -4 -5 63 -6 158 -2
90 3 1039 7 2109 8 1338 1 1949 5 1959 13 8 5 17 8 20 6 3 -2 14 10 25 28 16
29 17 33 3 55 -15 22 -19 23 -110 18 -131 -6 -227 4 -228 26 -1 17 -1 16 -15
-27 -3 -10 -7 -11 -18 -2 -11 9 -13 36 -9 129 4 104 3 118 -14 130 -17 14 -17
14 5 9 15 -4 22 -1 19 6 -3 9 -56 13 -181 14 -98 1 -185 4 -193 8 -13 4 -14 3
-4 -9 9 -10 37 -16 89 -19 75 -3 75 -3 -15 -4 l-93 0 0 809 c0 644 3 808 13
803 6 -4 3 1 -7 9 -11 9 -17 19 -13 22 4 4 13 1 22 -6 13 -11 15 -87 16 -609
0 -328 4 -614 8 -636 4 -22 7 250 7 603 l-1 644 -25 19 c-14 10 -30 23 -37 29
-7 5 -17 10 -23 10 -6 0 -8 4 -5 10 3 6 -1 7 -9 4 -9 -3 -16 -1 -16 5 0 7 -15
18 -32 26 -18 7 -44 23 -57 34 -13 11 -27 18 -31 16 -5 -3 -10 -2 -12 3 -7 16
-76 62 -94 62 -15 0 -16 2 -5 9 10 7 6 11 -17 16 -17 3 -36 13 -43 21 -7 9
-30 25 -52 37 -73 40 -114 67 -143 95 -7 7 -17 12 -21 11 -19 -3 -34 2 -29 10
9 14 -51 34 -79 27 l-25 -6 0 -1065 c0 -654 4 -1065 9 -1065 6 0 8 39 6 93 -3
61 -2 83 4 67 7 -20 9 -14 7 27 -1 29 -5 56 -9 59 -4 4 -7 14 -6 23 0 12 3 11
9 -4 5 -11 8 403 7 922 -1 519 1 942 4 940 4 -1 75 -45 158 -97 l151 -95 0
-1057 c0 -582 -1 -1061 -2 -1065 -8 -22 -165 14 -252 57 -33 17 -64 30 -70 30
-24 0 -93 92 -116 155 -25 67 -28 186 -29 1154 -1 941 0 1026 15 1043 16 17
38 18 305 18 348 0 414 -10 509 -79 47 -34 120 -99 120 -106 0 -3 16 -27 36
-55 20 -27 33 -50 30 -50 -4 0 0 -13 9 -30 15 -29 43 -146 47 -197 l2 -28 75
5 c47 3 76 10 79 18 3 9 -14 12 -62 12 -44 0 -66 -4 -66 -12 0 -6 -3 -8 -6 -5
-4 4 -9 29 -11 57 -2 28 -10 71 -18 97 -8 25 -12 50 -9 54 2 4 1 9 -3 11 -11
4 -47 80 -48 97 0 8 -6 16 -13 19 -6 2 -10 8 -6 13 3 5 0 8 -8 7 -7 -2 -12 3
-10 9 6 31 -157 158 -191 149 -9 -2 -15 0 -12 4 7 12 -72 33 -101 27 -13 -2
-21 0 -18 4 3 5 -148 9 -335 9 -221 0 -341 -4 -341 -10 0 -5 5 -10 10 -10 6 0
9 -63 8 -172 l-2 -173 -6 165 c-3 91 -6 -310 -5 -890 l0 -1055 5 890 5 890 5
-925 c6 -1050 -1 -974 91 -1075 80 -86 161 -125 319 -151 66 -11 212 -14 643
-14 598 0 586 1 533 -49 -21 -20 -32 -22 -78 -18 -37 4 -44 3 -23 -2 21 -6 2
-8 -65 -8 -91 0 -92 1 -30 7 36 4 -407 6 -985 6 -907 -1 -963 -1 -410 -6 501
-4 394 -5 -490 -5 -621 0 -1015 2 -875 5 140 3 -235 7 -835 7 -600 1 -1094 2
-1099 2 -5 1 1 12 14 26 l23 24 1221 3 1221 3 79 23 c202 57 341 179 398 350
l22 67 5 1048 6 1048 -450 -3 c-446 -3 -451 -3 -508 -26 -65 -27 -191 -136
-183 -159 3 -7 -1 -13 -9 -13 -13 0 -15 30 -15 195 l0 195 1365 0 1365 0 0
-378 c0 -281 -3 -381 -12 -390 -8 -8 -45 -12 -100 -12 l-88 0 0 53 c0 64 -25
165 -46 189 -9 9 -13 22 -9 27 3 6 -1 14 -9 17 -9 3 -13 11 -9 17 4 6 1 7 -7
2 -10 -6 -12 -4 -7 9 4 10 3 15 -3 11 -6 -3 -11 -1 -11 4 -1 6 -2 17 -3 24 -1
6 -8 11 -15 9 -8 -2 -11 3 -8 13 4 9 1 15 -9 15 -8 0 -13 4 -10 9 3 4 -4 17
-17 27 l-22 19 19 -22 c11 -13 14 -23 9 -23 -6 0 -16 7 -23 15 -6 8 -32 26
-57 41 -34 20 -42 28 -32 35 8 5 10 9 4 9 -5 0 -16 -4 -23 -8 -8 -6 4 -19 40
-42 29 -18 63 -44 76 -58 12 -14 22 -21 22 -16 0 11 71 -94 74 -110 1 -6 12
-31 24 -55 13 -26 24 -74 28 -120 7 -78 25 -121 51 -121 8 0 12 4 8 9 -3 6 7
6 27 0 44 -12 111 -12 103 1 -3 6 2 10 12 10 10 0 26 13 36 29 15 25 17 67 16
382 0 341 -3 382 -31 400 -5 3 -201 6 -436 7 -517 1 -472 -1 -472 15 0 15 -41
57 -55 57 -4 0 -23 11 -41 25 -18 14 -35 25 -39 25 -9 0 -90 54 -93 63 -2 4
-10 7 -18 7 -8 0 -14 5 -14 10 0 6 -5 10 -11 10 -6 0 -31 14 -56 30 -24 17
-47 30 -51 30 -4 0 -25 14 -46 30 -22 17 -46 30 -53 30 -7 0 -13 5 -13 10 0 6
-5 10 -11 10 -6 0 -31 14 -56 30 -24 17 -48 30 -54 30 -5 0 -9 3 -9 8 0 7 -30
26 -120 75 -30 16 -73 42 -95 58 -22 16 -60 38 -85 50 -25 12 -54 29 -65 39
-16 14 -28 15 -60 8z m277 -171 c317 -192 730 -447 743 -458 5 -6 2 -16 -10
-27 -16 -14 -17 -14 -6 0 8 11 9 18 2 23 -6 3 -74 5 -151 4 -122 -1 -144 1
-161 17 -10 9 -19 14 -19 10 0 -4 -14 4 -31 18 -17 14 -35 26 -40 26 -5 0 -28
15 -52 33 -23 17 -61 41 -85 52 -23 11 -42 24 -42 28 0 5 -4 5 -10 2 -5 -3
-10 -1 -10 5 0 6 -10 15 -22 20 -13 6 -56 30 -96 55 -41 25 -75 45 -77 45 -2
0 -27 16 -56 35 -30 19 -59 35 -66 35 -7 0 -13 3 -13 8 0 4 -14 15 -31 24
l-31 18 -406 -207 c-224 -113 -524 -266 -667 -339 -143 -73 -368 -188 -501
-255 -238 -121 -240 -122 -236 -151 3 -16 11 -32 18 -35 8 -3 14 -9 14 -14 0
-11 -337 -12 -343 -1 -3 4 68 6 156 4 134 -3 160 -1 149 10 -10 10 -54 13
-172 13 -158 0 -160 0 -160 22 0 18 36 40 228 139 125 64 277 143 337 174 61
32 236 123 390 202 154 80 388 201 520 269 546 282 670 346 677 348 4 0 121
-68 260 -152z m-55 -203 c109 -66 205 -123 214 -129 142 -83 246 -151 238
-153 -5 -2 -58 25 -117 61 -59 35 -205 124 -324 196 l-216 131 -54 -29 c-29
-15 -291 -149 -583 -296 -291 -147 -634 -321 -761 -386 -141 -72 -243 -119
-260 -119 -25 1 -19 6 36 34 36 18 187 95 335 171 149 76 488 248 755 383 267
134 484 247 483 251 -1 4 11 6 27 5 17 -1 114 -52 227 -120z m-195 73 c16 -15
70 -41 81 -39 4 1 7 -2 7 -8 0 -5 16 -16 35 -24 19 -8 35 -20 35 -25 0 -6 6
-11 13 -11 13 0 90 -48 120 -74 9 -9 24 -16 33 -16 9 0 18 -9 21 -21 5 -16 8
-18 15 -7 7 10 11 10 22 -4 7 -10 18 -18 25 -18 12 0 92 -47 101 -60 3 -3 13
-9 23 -13 9 -3 17 -11 17 -18 0 -7 -19 -10 -54 -7 -30 1 -52 0 -49 -5 2 -4
-16 -6 -41 -5 -25 0 -43 4 -41 7 5 9 -43 6 -52 -2 -9 -10 -333 -9 -333 1 0 5
-18 9 -40 9 -22 0 -40 -3 -40 -7 0 -10 -321 -12 -336 -2 -7 4 -60 5 -118 2
-116 -6 -151 -1 -132 16 6 5 16 12 21 13 34 11 61 24 86 42 16 11 38 22 51 24
12 3 24 8 27 13 9 12 76 42 96 42 9 0 14 4 11 9 -5 8 14 17 54 26 8 2 19 10
25 17 5 7 17 14 25 16 21 4 122 55 137 69 7 6 30 17 50 24 21 6 49 20 62 30
28 22 26 22 43 6z m-827 -591 c0 -139 3 -167 17 -182 16 -18 11 -19 -165 -18
-565 3 -614 5 -572 19 22 7 36 13 30 14 -13 1 43 31 59 31 6 0 19 9 29 20 10
12 22 18 27 15 8 -5 54 18 70 35 11 12 51 30 65 30 8 0 15 5 15 10 0 6 9 10
19 10 11 0 21 3 23 8 2 4 35 23 73 42 39 19 72 38 73 42 2 5 12 8 23 8 10 0
19 4 19 8 0 4 9 8 19 9 11 1 30 8 43 17 60 39 114 63 123 54 6 -5 10 -76 10
-172z m2218 -3 c-7 -2 -19 -2 -25 0 -7 3 -2 5 12 5 14 0 19 -2 13 -5z m-1064
-8 c-3 -2 -174 -5 -380 -5 -499 -2 -523 -7 -651 -129 -65 -60 -74 -60 -25 1
42 53 100 92 173 117 56 19 83 20 473 21 228 0 412 -2 410 -5z m-9 -1027 c-1
-552 -5 -1021 -10 -1043 -28 -130 -86 -218 -189 -290 -49 -34 -141 -80 -141
-70 0 2 -19 -2 -42 -11 -22 -8 -43 -12 -45 -10 -2 2 -24 -2 -48 -10 -25 -7
-47 -9 -50 -5 -4 8 32 17 88 23 9 1 17 6 17 10 0 4 6 8 13 8 6 0 33 20 58 45
26 24 49 41 53 37 4 -3 4 1 1 10 -4 11 2 30 17 50 12 18 25 47 27 63 3 31 9
557 11 1047 1 152 -2 283 -6 289 -4 7 -3 10 2 6 9 -5 10 712 1 785 -5 35 11
56 32 43 4 -2 21 0 37 5 25 7 21 8 -28 9 l-57 1 -3 -1087 -3 -1088 -22 -48
c-37 -80 -78 -123 -151 -159 l-67 -33 -488 -3 c-268 -2 -485 -7 -482 -11 7
-13 -17 -20 -49 -14 -19 4 -25 10 -21 21 4 12 -1 13 -25 9 -16 -4 -30 -3 -30
2 0 5 -18 12 -41 16 -83 14 -29 14 77 0 136 -18 936 -21 1029 -4 110 20 175
67 220 156 l30 58 1 890 c0 490 4 985 9 1100 l8 210 134 -2 133 -2 0 -1003z
m-296 980 c3 -13 6 -48 6 -80 l0 -56 -57 -4 c-82 -6 -694 -1 -700 6 -3 3 12
22 33 44 41 40 128 90 179 102 17 4 143 8 281 9 l252 1 6 -22z m1564 -42 c10
-12 0 -8 -23 9 -56 40 -66 51 -27 29 18 -10 41 -28 50 -38z m-2288 11 c0 -2
-17 -19 -37 -38 l-38 -34 34 38 c33 34 41 42 41 34z m2335 -54 l18 -28 -21 19
c-12 11 -22 23 -22 28 0 14 7 9 25 -19z m-1610 -120 l0 -38 -868 3 -868 2 6
-592 c3 -374 9 -613 16 -648 48 -236 275 -455 599 -577 188 -71 414 -96 833
-91 175 2 266 0 264 -7 -4 -12 -607 -14 -752 -2 -55 5 -97 6 -93 2 3 -4 42 -9
85 -12 43 -3 81 -11 85 -17 4 -6 8 -7 8 -2 0 5 6 4 13 -1 9 -7 82 -10 82 -3 0
8 164 9 186 1 16 -5 29 -7 29 -3 0 8 207 8 216 0 3 -3 19 -1 36 6 25 9 32 8
36 -3 4 -11 6 -11 13 0 7 12 9 12 9 0 0 -11 3 -11 16 0 15 12 16 11 9 -11 -19
-60 -79 -117 -156 -147 -40 -16 -96 -18 -636 -18 -326 0 -584 3 -575 6 11 4 8
7 -13 12 -17 3 -39 8 -50 11 -11 4 -6 0 10 -8 17 -8 24 -15 16 -16 -7 0 -42
14 -77 31 -126 62 -239 207 -264 339 -6 33 -10 391 -10 936 l0 884 898 0 897
0 0 -37z m3 -78 c3 -3 -376 -5 -841 -5 l-847 0 0 -350 0 -350 23 0 c12 0 32
-3 45 -6 22 -6 22 -7 22 -204 0 -109 -3 -206 -6 -215 -4 -9 -24 -25 -45 -36
-27 -13 -39 -27 -40 -42 -1 -12 -5 -2 -9 23 -9 56 -12 1178 -4 1192 7 11 1691
4 1702 -7z m-405 -27 c-2 -5 0 -8 6 -8 5 0 12 4 15 8 5 9 236 7 265 -3 11 -3
22 -1 26 5 5 8 12 7 23 -2 9 -7 13 -8 9 -2 -4 7 5 11 23 12 18 0 30 -4 30 -12
0 -9 -26 -13 -96 -14 -53 -1 -99 -4 -102 -7 -3 -3 10 -5 29 -5 28 -1 31 -2 16
-11 -9 -6 -15 -15 -11 -20 3 -6 10 -6 17 -1 30 23 75 30 95 16 13 -9 23 -11
27 -4 3 5 9 10 13 10 9 0 9 -337 0 -345 -5 -5 -296 -8 -551 -5 l-37 0 1 142
c0 93 5 148 12 157 9 12 9 13 0 7 -9 -5 -13 0 -13 16 0 13 -3 33 -6 45 -5 20
-2 22 37 25 79 6 177 3 172 -4z m-928 -10 c6 0 152 1 325 1 385 2 352 3 345
-9 -3 -5 -6 -147 -5 -315 l0 -305 -107 0 c-91 0 -104 2 -89 13 13 9 16 20 12
35 -4 12 -10 21 -14 21 -4 -1 -24 -1 -44 0 l-37 1 -4 108 -3 107 -4 -115 c-3
-81 -6 -33 -10 165 l-5 280 -3 -272 -2 -273 -52 0 c-70 0 -86 -10 -70 -44 l12
-26 -90 0 -90 0 -2 258 -3 257 -5 -260 -5 -260 -5 305 -5 305 -3 -304 -2 -303
-152 7 c-123 6 -155 11 -165 24 -11 14 -12 13 -13 -10 l0 -27 138 -5 c75 -3
296 -4 489 -4 l353 2 1 105 c0 58 0 203 -1 323 -1 149 2 217 9 217 8 0 11 -65
11 -205 l0 -205 310 4 c302 5 310 4 310 -15 0 -18 -9 -19 -312 -19 l-313 0 3
-110 4 -110 -506 0 -506 0 -1 138 c-1 97 -3 127 -10 102 -4 -19 -6 -79 -4
-132 4 -83 2 -98 -11 -98 -13 0 -15 42 -13 332 l1 331 166 -7 c92 -4 172 -8
177 -8z m2534 -7 c14 -10 83 -55 153 -99 l128 -80 2 -946 c2 -520 7 -946 12
-946 4 0 7 28 5 63 -1 34 -1 78 1 97 2 19 7 -10 10 -65 l6 -100 2 92 2 92 165
0 c165 1 165 1 166 -21 1 -19 3 -17 9 7 5 19 8 -12 8 -85 0 -73 -3 -108 -8
-95 -6 13 -9 15 -9 5 -1 -13 -26 -15 -176 -13 -97 1 -180 5 -185 8 -6 3 -10 2
-10 -3 0 -6 -39 -9 -92 -8 -51 2 -126 3 -166 4 l-73 2 2 1055 c1 687 5 1055
11 1055 5 0 22 -9 37 -19z m-1223 -491 c2 -28 5 -347 4 -370 0 -8 2 -39 5 -68
3 -29 2 -51 -2 -49 -5 3 -9 -9 -10 -26 -1 -26 0 -28 7 -12 7 17 9 16 9 -10 1
-57 7 -56 -277 -53 -144 2 -262 0 -262 -3 0 -3 -58 -6 -129 -6 l-130 -1 -10
31 c-17 46 -14 122 5 138 14 11 16 10 14 -6 -4 -36 0 -45 20 -45 17 0 20 7 20
49 0 33 -6 56 -20 73 -21 28 -66 42 -74 24 -3 -7 -8 -6 -15 4 -9 12 -11 11
-11 -7 0 -12 -4 -23 -10 -25 -5 -2 -11 -47 -12 -103 -1 -55 -3 -91 -6 -80 -7
32 -19 38 -18 9 1 -15 7 -29 14 -32 7 -2 12 -10 12 -18 0 -12 -22 -14 -125
-13 -87 1 -125 4 -125 12 0 9 -2 9 -8 1 -4 -7 -33 -12 -66 -13 -51 0 -59 2
-64 21 -5 21 -6 21 -13 2 -6 -18 -7 -18 -14 -1 -10 24 4 95 15 77 5 -8 12 -11
16 -8 3 4 -9 16 -27 27 -38 23 -49 26 -49 11 0 -5 -4 -10 -10 -10 -5 0 -7 6
-4 13 5 14 -22 17 -43 4 -12 -8 -39 20 -29 30 4 4 10 2 14 -4 5 -8 14 -4 29
13 12 13 18 24 13 24 -4 0 -11 18 -15 40 -4 22 -12 40 -18 39 -7 -1 -20 1 -29
5 -11 5 -27 1 -44 -13 -14 -11 -31 -18 -36 -15 -5 4 -2 -8 6 -25 9 -17 23 -31
31 -31 7 0 17 -5 21 -12 4 -7 3 -8 -4 -4 -19 11 -14 -5 6 -21 16 -14 16 -14
-3 -8 -42 15 -65 17 -65 6 0 -7 5 -9 12 -5 8 5 9 2 4 -11 -5 -14 -4 -15 7 -7
16 13 70 9 75 -6 2 -6 -5 -8 -17 -5 -12 3 -21 1 -21 -5 0 -14 43 -21 103 -18
l49 2 -7 -55 c-8 -61 -11 -71 -26 -71 -7 0 -8 20 -4 55 7 52 6 55 -15 55 -22
0 -22 -3 -17 -55 5 -53 5 -55 -19 -55 -22 0 -24 3 -24 55 0 30 -4 55 -9 55 -5
0 -15 2 -23 5 -10 4 -12 -6 -10 -43 l4 -49 -57 1 -57 1 3 208 3 208 477 -3
c496 -3 508 -2 492 38 -3 10 -2 15 3 12 8 -5 11 88 4 117 -11 44 -17 43 293
41 l292 -1 1 -25z m-846 -90 c0 -6 -43 -10 -109 -10 -63 0 -112 4 -116 10 -4
6 35 10 109 10 71 0 116 -4 116 -10z m-183 -36 c-3 -3 -12 -4 -19 -1 -8 3 -5
6 6 6 11 1 17 -2 13 -5z m-380 -207 c7 0 10 -3 8 -7 -2 -4 0 -21 5 -39 5 -19
5 -29 -1 -26 -5 4 -9 2 -9 -3 0 -5 -7 -9 -15 -9 -8 0 -12 3 -10 7 2 4 -11 14
-30 23 -19 9 -35 21 -35 27 0 6 21 -1 46 -16 42 -25 45 -25 36 -7 -6 11 -8 24
-4 28 4 5 2 6 -3 2 -6 -3 -17 4 -24 15 -12 19 -11 20 6 13 10 -4 23 -8 30 -8z
m-42 -17 c3 -6 -1 -7 -9 -4 -18 7 -21 14 -7 14 6 0 13 -4 16 -10z m674 -7 c24
-20 42 -113 22 -113 -6 0 -11 17 -11 39 0 56 -41 91 -68 58 -6 -6 -12 -65 -14
-129 -4 -114 -4 -117 16 -112 12 2 205 5 431 7 400 2 410 2 413 -18 4 -16 2
-17 -10 -7 -15 12 -518 19 -538 7 -5 -3 -10 -13 -10 -21 0 -12 43 -14 285 -14
249 0 284 -2 279 -15 -5 -13 -107 -15 -843 -13 -817 3 -824 3 -286 8 l550 5
-550 5 -550 5 49 28 c39 22 60 27 110 26 46 -1 55 -3 36 -9 -16 -5 9 -8 73 -9
63 -1 96 3 92 9 -4 7 68 10 209 10 137 0 216 -4 216 -10 0 -6 -35 -10 -86 -10
-47 0 -83 -4 -80 -9 3 -5 43 -8 88 -6 l83 2 5 132 c5 125 6 134 29 152 29 23
33 23 60 2z m-37 -45 c-4 -16 -2 -19 9 -13 11 6 12 5 2 -6 -8 -8 -13 -40 -13
-81 0 -41 -4 -68 -11 -68 -5 0 -8 4 -5 9 4 5 0 12 -6 15 -8 4 -9 8 -3 11 6 3
9 32 7 65 -2 34 -1 67 2 75 9 23 25 17 18 -7z m-615 -200 c-3 -7 -5 -2 -5 12
0 14 2 19 5 13 2 -7 2 -19 0 -25z m627 10 c-3 -4 -9 -8 -15 -8 -5 0 -9 4 -9 8
0 5 7 9 15 9 8 0 12 -4 9 -9z m-384 -347 l0 -230 -37 16 c-21 8 -45 20 -53 27
-8 6 -27 18 -41 25 -15 7 -38 24 -52 37 -14 13 -31 24 -36 24 -5 0 -16 9 -24
20 -8 11 -17 17 -20 13 -4 -3 -7 1 -7 10 0 10 -3 17 -7 17 -18 0 -113 107
-113 127 0 6 -4 13 -8 15 -13 4 -62 96 -62 113 0 13 35 15 230 15 l230 0 0
-229z m630 139 l0 -89 -295 -1 -295 0 -2 67 -2 68 -6 -70 -6 -70 -4 83 c-3 45
-3 87 -2 92 2 6 119 10 308 10 l304 0 0 -90z m398 83 c-125 -3 -148 -6 -148
-19 0 -12 -9 -14 -40 -11 -22 2 -38 2 -35 -1 3 -3 0 -10 -5 -17 -6 -7 -4 -19
6 -33 14 -20 24 -22 118 -22 68 0 107 4 115 13 11 10 13 10 7 0 -4 -8 -2 -13
6 -13 9 0 13 10 12 29 -2 35 -11 51 -27 50 -9 0 -8 -2 1 -6 6 -2 10 -9 6 -14
-3 -5 0 -9 7 -9 8 0 9 -3 3 -9 -5 -6 -56 -10 -114 -11 -135 -2 -130 -2 -130
11 0 8 22 10 73 6 39 -3 90 -2 112 2 l40 8 -30 14 c-28 13 -24 14 73 17 57 1
102 7 102 12 0 6 5 10 10 10 6 0 10 -105 10 -295 l0 -295 -245 -1 c-135 0
-260 -1 -277 -2 l-33 -1 -3 242 -2 242 87 2 c68 1 75 3 31 5 -52 4 -59 7 -64
28 -12 46 -1 54 83 58 l78 3 -87 2 -88 2 0 -45 c0 -39 -3 -45 -20 -45 -19 0
-21 6 -19 50 l3 50 265 -2 c162 -2 208 -4 119 -5z m-60 -35 c-3 -7 -17 -13
-33 -13 -16 0 -30 6 -32 13 -3 8 7 12 32 12 25 0 35 -4 33 -12z m-340 -349 l2
-202 -107 7 c-60 4 -144 13 -189 21 -85 15 -292 79 -309 96 -6 6 -10 68 -10
144 l0 135 305 0 305 0 3 -201z m1389 34 c-3 -10 -5 -2 -5 17 0 19 2 27 5 18
2 -10 2 -26 0 -35z m1021 -280 c-10 -2 -26 -2 -35 0 -10 3 -2 5 17 5 19 0 27
-2 18 -5z m49 -27 c4 -3 -80 -6 -185 -6 -106 0 -192 3 -192 8 0 8 369 7 377
-2z m-3147 -226 c0 -5 -2 -10 -4 -10 -3 0 -8 5 -11 10 -3 6 -1 10 4 10 6 0 11
-4 11 -10z m788 -7 c-125 -2 -332 -2 -460 0 -128 1 -26 2 227 2 253 0 358 -1
233 -2z m-1470 -100 c-98 -2 -258 -2 -355 0 -98 1 -18 2 177 2 195 0 275 -1
178 -2z m295 0 c-13 -2 -35 -2 -50 0 -16 2 -5 4 22 4 28 0 40 -2 28 -4z m3260
0 c-56 -2 -151 -2 -210 0 -59 1 -13 3 102 3 116 0 164 -2 108 -3z m205 0 c-16
-2 -40 -2 -55 0 -16 2 -3 4 27 4 30 0 43 -2 28 -4z m65 0 c-7 -2 -19 -2 -25 0
-7 3 -2 5 12 5 14 0 19 -2 13 -5z m85 0 c-10 -2 -28 -2 -40 0 -13 2 -5 4 17 4
22 1 32 -1 23 -4z"/>
<path d="M2785 5872 c-120 -63 -673 -347 -738 -380 -39 -19 -27 -27 14 -9 19
7 40 12 48 9 9 -3 11 0 6 8 -6 10 -2 12 14 7 17 -4 21 -2 17 9 -3 8 -2 13 3 9
5 -3 16 1 24 9 8 8 17 12 21 9 3 -4 6 -1 6 7 0 10 4 10 17 -1 15 -12 16 -12
11 3 -6 15 5 25 35 33 4 2 10 4 15 5 4 1 15 1 26 0 10 -1 15 3 12 9 -4 5 7 17
24 26 21 11 30 12 30 4 0 -7 8 -3 18 7 24 27 71 50 96 46 16 -2 18 -1 7 7 -11
7 -7 13 18 25 17 9 31 13 31 9 0 -4 7 2 15 13 15 19 15 19 9 -1 -5 -18 -4 -18
6 -2 6 9 20 17 31 17 13 0 18 4 13 12 -5 8 -2 9 10 5 10 -4 15 -3 11 3 -6 10
6 14 39 10 11 -1 15 3 11 9 -6 11 41 36 58 32 5 -1 5 4 1 10 -5 8 -2 10 9 6 9
-3 26 4 42 19 15 14 34 23 42 20 8 -3 11 -1 8 4 -3 6 0 10 8 10 8 0 27 7 43
15 18 9 31 11 34 4 4 -5 17 -12 30 -14 13 -2 28 -10 34 -16 8 -9 6 -10 -7 -6
-12 4 -16 3 -11 -4 3 -6 15 -8 26 -6 14 4 18 1 14 -8 -3 -9 0 -12 10 -8 7 3
14 0 14 -6 0 -7 8 -11 18 -9 9 2 16 -2 15 -9 -2 -7 4 -10 12 -7 8 4 15 7 15 9
0 1 -33 22 -72 46 -40 23 -82 48 -93 55 -18 11 -35 5 -150 -54z"/>
<path d="M3110 5813 c0 -4 5 -15 10 -23 8 -13 10 -13 10 2 0 9 -4 20 -10 23
-5 3 -10 3 -10 -2z"/>
<path d="M3204 5747 c16 -14 38 -28 48 -30 25 -7 23 2 -4 13 -13 5 -34 17 -48
26 -19 13 -18 10 4 -9z"/>
<path d="M3161 5671 c-10 -6 -9 -10 3 -14 8 -3 18 -2 21 3 8 13 -9 20 -24 11z"/>
<path d="M1690 5307 c-173 -90 -439 -228 -590 -307 -151 -79 -285 -149 -297
-154 -13 -6 -23 -14 -23 -19 0 -4 18 2 40 13 21 11 46 20 55 20 10 0 13 5 9
12 -5 7 -2 9 9 5 9 -3 18 0 21 9 3 8 15 14 26 14 12 0 28 7 37 15 8 8 19 13
24 10 5 -4 9 -1 9 5 0 6 4 9 9 6 5 -4 11 -3 13 2 7 17 168 103 179 96 8 -4 9
-3 5 4 -4 7 -1 12 8 12 9 0 16 5 16 12 0 6 3 9 6 5 4 -3 31 7 60 24 30 16 54
27 54 24 0 -4 7 1 16 9 8 9 19 14 24 11 4 -3 13 2 20 9 6 8 25 18 42 21 16 4
39 16 50 27 13 13 29 18 44 15 20 -3 22 -2 12 10 -6 8 -7 13 -2 12 5 -1 22 3
37 9 16 7 32 12 37 12 5 0 14 8 19 18 6 9 11 14 11 9 0 -4 10 -1 23 7 12 8 37
17 55 21 18 4 30 10 27 15 -3 5 10 14 29 21 19 7 33 16 30 21 -3 4 2 5 10 2 9
-3 16 -1 16 5 0 6 6 11 14 11 24 0 69 27 54 33 -9 4 -9 6 3 6 8 1 22 -5 30
-11 12 -11 12 -11 2 1 -10 12 -8 17 10 26 15 8 24 8 29 1 5 -7 8 -7 8 2 0 6 8
12 18 12 14 0 15 2 2 10 -8 5 -17 10 -20 10 -3 0 -147 -74 -320 -163z"/>
<path d="M3680 5446 c0 -2 9 -6 20 -9 11 -3 20 -1 20 4 0 5 -9 9 -20 9 -11 0
-20 -2 -20 -4z"/>
<path d="M3743 5423 c10 -3 16 -11 13 -18 -3 -8 2 -12 12 -10 9 1 20 -3 24 -8
3 -6 15 -12 25 -13 14 -2 13 1 -7 16 -13 10 -27 17 -31 14 -4 -2 -9 3 -13 11
-3 8 -13 14 -23 14 -17 -1 -17 -2 0 -6z"/>
<path d="M1730 5210 c-9 -6 -10 -10 -3 -10 6 0 15 5 18 10 8 12 4 12 -15 0z"/>
<path d="M1570 5146 c0 -2 7 -7 16 -10 8 -3 12 -2 9 4 -6 10 -25 14 -25 6z"/>
<path d="M1499 5093 c-13 -17 -13 -17 6 -3 11 8 22 16 24 17 2 2 0 3 -6 3 -6
0 -17 -8 -24 -17z"/>
<path d="M1055 4830 c-3 -5 1 -10 10 -10 9 0 13 5 10 10 -3 6 -8 10 -10 10 -2
0 -7 -4 -10 -10z"/>
<path d="M2508 5333 c7 -3 16 -2 19 1 4 3 -2 6 -13 5 -11 0 -14 -3 -6 -6z"/>
<path d="M2773 5333 c9 -2 23 -2 30 0 6 3 -1 5 -18 5 -16 0 -22 -2 -12 -5z"/>
<path d="M3148 5033 c6 -2 18 -2 25 0 6 3 1 5 -13 5 -14 0 -19 -2 -12 -5z"/>
<path d="M3198 5033 c7 -3 16 -2 19 1 4 3 -2 6 -13 5 -11 0 -14 -3 -6 -6z"/>
<path d="M1173 4820 c1 -23 17 -28 17 -5 0 8 5 15 11 15 5 0 7 -6 3 -12 -6
-10 -5 -10 7 -1 11 9 74 13 205 16 l189 2 -217 3 c-211 2 -217 1 -215 -18z"/>
<path d="M2563 4833 c64 -2 170 -2 235 0 64 1 11 3 -118 3 -129 0 -182 -2
-117 -3z"/>
<path d="M1172 4770 c0 -14 2 -19 5 -12 2 6 2 18 0 25 -3 6 -5 1 -5 -13z"/>
<path d="M1170 3764 c0 -724 0 -722 50 -827 34 -72 160 -204 160 -167 0 5 -7
10 -16 10 -8 0 -13 4 -10 8 3 5 -8 16 -25 26 -16 9 -27 21 -24 26 3 5 -4 15
-15 23 -11 7 -17 17 -12 22 4 5 2 5 -4 2 -17 -10 -25 18 -11 33 9 10 9 11 0 6
-15 -8 -36 24 -58 88 -12 39 -17 99 -19 268 -3 200 2 252 21 201 4 -10 11 -21
17 -25 7 -5 5 -8 -4 -8 -13 0 -13 -1 0 -10 10 -6 11 -10 3 -10 -7 0 -13 -5
-13 -11 0 -5 5 -7 11 -4 12 8 38 -23 39 -47 0 -9 7 -21 15 -25 18 -10 47 -78
37 -88 -4 -3 -2 -5 3 -3 6 1 21 -5 34 -14 l23 -16 -23 -5 c-22 -4 -21 -4 4 -6
19 -1 26 -5 21 -13 -4 -7 -3 -8 5 -4 11 7 43 -16 41 -29 -1 -4 2 -10 6 -13 4
-4 4 -1 0 6 -4 6 -2 12 3 12 6 0 11 -7 11 -15 0 -8 7 -15 16 -15 11 0 14 -6 9
-20 -4 -12 -2 -20 5 -20 6 0 8 5 5 10 -9 15 2 12 33 -7 33 -22 43 -34 34 -48
-3 -5 3 -3 13 5 17 14 18 13 12 -4 -6 -16 -5 -17 8 -6 8 7 15 8 15 3 0 -5 12
-16 28 -24 15 -8 30 -18 33 -23 4 -4 10 -3 13 3 4 6 -1 14 -11 18 -49 18 -201
134 -268 205 -58 61 -85 101 -122 178 -35 71 -53 99 -67 99 -13 1 -16 6 -11
19 4 9 8 42 10 72 2 49 2 50 -5 15 -4 -24 -8 41 -8 160 -1 132 2 195 8 185 7
-11 9 -2 9 30 -1 41 -2 42 -9 15 -4 -16 -8 73 -9 199 0 126 -3 232 -6 234 -3
3 -5 -300 -5 -674z m175 -504 c10 -11 16 -20 13 -20 -3 0 -13 9 -23 20 -10 11
-16 20 -13 20 3 0 13 -9 23 -20z"/>
<path d="M1194 3840 c0 -58 1 -81 3 -52 2 28 2 76 0 105 -2 28 -3 5 -3 -53z"/>
<path d="M1201 3534 c0 -11 3 -14 6 -6 3 7 2 16 -1 19 -3 4 -6 -2 -5 -13z"/>
<path d="M1685 3000 c3 -4 14 -10 25 -13 11 -3 18 -2 15 3 -3 4 -14 10 -25 13
-11 3 -18 2 -15 -3z"/>
<path d="M1800 2950 c8 -5 22 -9 30 -9 10 0 8 3 -5 9 -27 12 -43 12 -25 0z"/>
<path d="M1388 2923 c12 -2 30 -2 40 0 9 3 -1 5 -23 4 -22 0 -30 -2 -17 -4z"/>
<path d="M2038 2883 c6 -2 18 -2 25 0 6 3 1 5 -13 5 -14 0 -19 -2 -12 -5z"/>
<path d="M2498 2823 c6 -2 18 -2 25 0 6 3 1 5 -13 5 -14 0 -19 -2 -12 -5z"/>
<path d="M1390 2760 c0 -5 9 -14 20 -20 11 -6 20 -9 20 -8 0 2 -9 11 -20 21
-11 9 -20 13 -20 7z"/>
<path d="M2823 2755 c0 -8 4 -12 9 -9 5 3 6 10 3 15 -9 13 -12 11 -12 -6z"/>
<path d="M1262 3795 c0 -16 2 -22 5 -12 2 9 2 23 0 30 -3 6 -5 -1 -5 -18z"/>
<path d="M1262 3670 c0 -19 2 -27 5 -17 2 9 2 25 0 35 -3 9 -5 1 -5 -18z"/>
<path d="M2393 4698 c-2 -5 7 -8 21 -8 14 0 28 -5 32 -11 4 -7 18 -8 38 -4 44
10 105 11 99 3 -2 -5 3 -8 11 -8 9 0 16 4 16 9 0 5 12 12 28 14 18 3 13 5 -18
6 -126 6 -222 5 -227 -1z"/>
<path d="M2587 4620 c3 -11 9 -17 14 -15 10 7 1 35 -11 35 -5 0 -6 -9 -3 -20z"/>
<path d="M2780 4620 c0 -5 5 -10 10 -10 6 0 10 5 10 10 0 6 -4 10 -10 10 -5 0
-10 -4 -10 -10z"/>
<path d="M2900 4613 c0 -10 5 -25 10 -33 8 -12 10 -9 10 12 0 15 -4 30 -10 33
-5 3 -10 -2 -10 -12z"/>
<path d="M1302 4620 c0 -14 2 -19 5 -12 2 6 2 18 0 25 -3 6 -5 1 -5 -13z"/>
<path d="M1994 4495 c0 -55 1 -76 3 -47 2 29 2 74 0 100 -2 26 -3 2 -3 -53z"/>
<path d="M1301 4534 c0 -11 3 -14 6 -6 3 7 2 16 -1 19 -3 4 -6 -2 -5 -13z"/>
<path d="M1298 4440 c-4 -41 -5 -76 -3 -79 12 -11 16 12 13 80 l-3 74 -7 -75z"/>
<path d="M1333 4255 c0 -44 2 -61 4 -37 2 23 2 59 0 80 -2 20 -4 1 -4 -43z"/>
<path d="M1322 4150 c0 -14 2 -19 5 -12 2 6 2 18 0 25 -3 6 -5 1 -5 -13z"/>
<path d="M1780 4100 c0 -5 7 -7 15 -4 8 4 15 8 15 10 0 2 -7 4 -15 4 -8 0 -15
-4 -15 -10z"/>
<path d="M2218 4093 c6 -2 18 -2 25 0 6 3 1 5 -13 5 -14 0 -19 -2 -12 -5z"/>
<path d="M4120 4680 c0 -11 3 -19 8 -19 18 3 33 -2 28 -9 -2 -4 5 -9 16 -9 11
-1 29 -10 39 -19 11 -9 19 -13 19 -8 0 5 7 -2 16 -14 8 -12 22 -22 30 -22 9 0
12 -5 8 -11 -4 -7 -1 -10 7 -7 13 5 103 -52 122 -77 5 -6 7 -2 5 9 -2 12 -51
50 -133 103 -174 112 -165 108 -165 83z"/>
<path d="M4125 3970 c0 -377 1 -531 2 -342 2 188 2 496 0 685 -1 188 -2 34 -2
-343z"/>
<path d="M4210 4063 c0 -7 -6 -10 -13 -7 -8 3 -20 -3 -28 -12 -11 -14 -15 -75
-17 -303 -5 -548 -3 -633 15 -653 21 -23 45 -23 67 1 13 15 16 29 11 67 -4 27
-2 83 4 124 5 41 6 79 2 83 -5 5 -6 151 -4 327 4 306 3 319 -16 351 -12 19
-21 29 -21 22z m10 -496 l0 -474 -22 2 -23 2 0 234 c1 622 4 697 23 702 9 3
18 5 20 6 1 0 2 -212 2 -472z"/>
<path d="M4192 3510 c0 -19 2 -27 5 -17 2 9 2 25 0 35 -3 9 -5 1 -5 -18z"/>
<path d="M4191 3434 c0 -11 3 -14 6 -6 3 7 2 16 -1 19 -3 4 -6 -2 -5 -13z"/>
<path d="M4194 3230 c0 -58 1 -81 3 -52 2 28 2 76 0 105 -2 28 -3 5 -3 -53z"/>
<path d="M4412 3450 c0 -14 2 -19 5 -12 2 6 2 18 0 25 -3 6 -5 1 -5 -13z"/>
<path d="M4123 3195 c0 -33 2 -45 4 -27 2 18 2 45 0 60 -2 15 -4 0 -4 -33z"/>
<path d="M4124 2910 c0 -107 2 -151 3 -97 2 53 2 141 0 195 -1 53 -3 9 -3 -98z"/>
<path d="M4802 2695 c0 -16 2 -22 5 -12 2 9 2 23 0 30 -3 6 -5 -1 -5 -18z"/>
<path d="M4123 2665 c0 -22 2 -30 4 -17 2 12 2 30 0 40 -3 9 -5 -1 -4 -23z"/>
<path d="M2468 4013 c7 -3 16 -2 19 1 4 3 -2 6 -13 5 -11 0 -14 -3 -6 -6z"/>
<path d="M2530 4010 c-9 -6 -10 -10 -3 -10 6 0 15 5 18 10 8 12 4 12 -15 0z"/>
<path d="M2550 3992 c0 -4 9 -13 20 -20 23 -14 26 -7 6 14 -16 15 -26 18 -26
6z"/>
<path d="M2506 3964 c-5 -13 -3 -14 7 -6 8 7 18 7 27 2 8 -6 20 -10 25 -9 10
0 -35 28 -46 29 -4 0 -10 -7 -13 -16z"/>
<path d="M1460 3959 c0 -5 5 -7 10 -4 6 3 10 8 10 11 0 2 -4 4 -10 4 -5 0 -10
-5 -10 -11z"/>
<path d="M1750 3968 c0 -3 10 -16 23 -30 22 -23 23 -24 41 -6 17 16 18 18 3
18 -9 0 -17 -5 -17 -12 0 -6 -11 -1 -25 12 -14 13 -25 21 -25 18z"/>
<path d="M2628 3950 c42 -26 56 -26 17 0 -16 11 -34 20 -40 20 -5 0 5 -9 23
-20z"/>
<path d="M1685 3940 c3 -5 8 -10 11 -10 2 0 4 5 4 10 0 6 -5 10 -11 10 -5 0
-7 -4 -4 -10z"/>
<path d="M2068 3943 c7 -3 16 -2 19 1 4 3 -2 6 -13 5 -11 0 -14 -3 -6 -6z"/>
<path d="M2589 3941 c8 -5 10 -14 6 -22 -6 -11 -5 -11 5 -2 14 12 6 33 -13 33
-8 0 -7 -3 2 -9z"/>
<path d="M1833 3928 c-22 -29 -22 -37 5 -53 l27 -18 -19 22 c-11 11 -16 24
-12 28 3 4 13 -3 22 -15 8 -12 20 -20 25 -16 6 3 3 11 -7 18 -9 7 -14 18 -10
24 5 8 1 10 -10 5 -12 -4 -15 -3 -10 5 10 16 1 15 -11 0z"/>
<path d="M1990 3936 c0 -2 7 -7 16 -10 8 -3 12 -2 9 4 -6 10 -25 14 -25 6z"/>
<path d="M1570 3920 c0 -5 5 -10 11 -10 5 0 7 5 4 10 -3 6 -8 10 -11 10 -2 0
-4 -4 -4 -10z"/>
<path d="M1910 3906 c0 -17 14 -29 23 -20 8 8 -3 34 -14 34 -5 0 -9 -6 -9 -14z"/>
<path d="M1545 3902 c20 -14 38 -56 26 -60 -6 -2 -11 -8 -11 -13 0 -6 5 -7 10
-4 6 3 10 -3 10 -13 0 -11 -7 -22 -15 -26 -8 -3 -15 -11 -15 -17 0 -7 9 -4 22
7 19 17 21 17 15 2 -8 -22 1 -22 27 -3 23 18 66 20 66 4 0 -6 -6 -9 -13 -6 -7
3 -24 -1 -38 -9 -22 -12 -22 -13 -3 -14 11 0 26 -6 33 -12 10 -11 11 -10 6 5
-5 12 -2 17 10 17 11 0 15 -5 11 -15 -5 -13 -2 -14 15 -4 19 10 19 12 4 29 -9
9 -15 21 -14 26 6 36 -31 43 -73 13 -15 -11 -28 -15 -28 -9 0 6 7 13 15 16 8
4 12 10 9 15 -3 5 1 12 9 15 7 2 14 10 14 17 0 7 4 20 8 30 7 18 6 18 -31 2
-34 -14 -39 -14 -46 0 -5 8 -14 15 -21 15 -8 0 -8 -3 -2 -8z m75 -31 c-5 -11
-15 -23 -22 -27 -7 -4 -8 -3 -4 4 4 7 1 12 -6 12 -8 1 -6 6 6 15 27 21 39 19
26 -4z m67 -67 c-3 -3 -12 -4 -19 -1 -8 3 -5 6 6 6 11 1 17 -2 13 -5z"/>
<path d="M2030 3899 c0 -5 5 -7 10 -4 6 3 10 8 10 11 0 2 -4 4 -10 4 -5 0 -10
-5 -10 -11z"/>
<path d="M1690 3889 c0 -5 -4 -8 -9 -5 -5 4 -7 -3 -4 -14 4 -15 0 -20 -13 -20
-16 0 -17 -2 -4 -10 10 -6 16 -6 18 0 2 6 7 8 10 6 4 -2 7 9 8 25 1 16 0 29
-2 29 -2 0 -4 -5 -4 -11z"/>
<path d="M1786 3885 c4 -8 11 -15 16 -15 6 0 5 6 -2 15 -7 8 -14 15 -16 15 -2
0 -1 -7 2 -15z"/>
<path d="M1907 3859 c7 -7 15 -10 18 -7 3 3 -2 9 -12 12 -14 6 -15 5 -6 -5z"/>
<path d="M1960 3820 c-8 -5 -11 -12 -7 -16 4 -4 15 0 24 9 18 18 8 23 -17 7z"/>
<path d="M2246 3817 c3 -10 9 -15 12 -12 3 3 0 11 -7 18 -10 9 -11 8 -5 -6z"/>
<path d="M1416 3806 c3 -9 13 -16 22 -16 8 0 13 1 11 3 -2 1 -12 9 -22 16 -15
12 -17 12 -11 -3z"/>
<path d="M1986 3790 c-11 -3 -15 -9 -10 -13 10 -6 42 9 34 16 -3 3 -14 1 -24
-3z"/>
<path d="M2200 3770 c0 -20 -5 -41 -12 -48 -9 -9 -7 -13 5 -18 9 -3 17 -14 18
-23 0 -12 2 -11 8 4 5 11 5 25 0 31 -5 6 -7 21 -4 34 2 12 0 30 -5 39 -7 12
-9 7 -10 -19z"/>
<path d="M1890 3780 c0 -5 5 -10 10 -10 6 0 10 5 10 10 0 6 -4 10 -10 10 -5 0
-10 -4 -10 -10z"/>
<path d="M1947 3775 c-4 -8 -3 -16 1 -19 4 -3 9 4 9 15 2 23 -3 25 -10 4z"/>
<path d="M1995 3750 c3 -5 10 -10 16 -10 5 0 9 5 9 10 0 6 -7 10 -16 10 -8 0
-12 -4 -9 -10z"/>
<path d="M1445 3740 c-3 -5 -2 -10 4 -10 5 0 13 5 16 10 3 6 2 10 -4 10 -5 0
-13 -4 -16 -10z"/>
<path d="M2275 3740 c-3 -6 1 -7 9 -4 18 7 21 14 7 14 -6 0 -13 -4 -16 -10z"/>
<path d="M1785 3720 c3 -5 8 -10 11 -10 2 0 4 5 4 10 0 6 -5 10 -11 10 -5 0
-7 -4 -4 -10z"/>
<path d="M1355 3576 c-30 -13 -30 -13 -4 -12 15 0 32 7 38 14 15 15 4 15 -34
-2z"/>
<path d="M1838 3583 c-27 -6 -22 -19 7 -19 14 0 25 3 25 7 0 12 -13 16 -32 12z"/>
<path d="M2165 3580 c-119 -7 -117 -11 6 -11 53 -1 96 4 102 10 6 6 7 10 2 9
-6 -1 -55 -5 -110 -8z"/>
<path d="M2863 3533 c15 -2 37 -2 50 0 12 2 0 4 -28 4 -27 0 -38 -2 -22 -4z"/>
<path d="M1428 3483 c7 -3 16 -2 19 1 4 3 -2 6 -13 5 -11 0 -14 -3 -6 -6z"/>
<path d="M1548 3483 c28 -2 76 -2 105 0 28 2 5 3 -53 3 -58 0 -81 -1 -52 -3z"/>
<path d="M1290 3469 c0 -5 5 -7 10 -4 6 3 10 8 10 11 0 2 -4 4 -10 4 -5 0 -10
-5 -10 -11z"/>
<path d="M1660 3096 c0 -2 8 -10 18 -17 15 -13 16 -12 3 4 -13 16 -21 21 -21
13z"/>
<path d="M1808 3483 c7 -3 16 -2 19 1 4 3 -2 6 -13 5 -11 0 -14 -3 -6 -6z"/>
<path d="M2230 3480 c-16 -6 -6 -7 30 -3 30 3 57 7 59 9 8 7 -64 2 -89 -6z"/>
<path d="M1915 3470 c3 -5 8 -10 11 -10 2 0 4 5 4 10 0 6 -5 10 -11 10 -5 0
-7 -4 -4 -10z"/>
<path d="M1941 3474 c1 -5 -1 -17 -6 -27 -9 -22 11 -71 25 -62 5 3 57 6 115 7
108 1 132 9 119 42 -3 9 -10 16 -16 16 -5 0 -6 4 -3 10 4 6 -1 7 -11 3 -12 -4
-15 -3 -10 5 4 7 1 12 -9 12 -9 0 -13 -5 -10 -10 8 -13 -18 -8 -27 5 -4 5 -10
2 -14 -8 -3 -9 -11 -17 -16 -17 -6 0 -8 6 -5 13 4 10 -9 14 -49 16 -36 1 -54
-2 -54 -10 0 -8 -4 -8 -16 1 -8 8 -14 9 -13 4z m72 -11 c-7 -2 -19 -2 -25 0
-7 3 -2 5 12 5 14 0 19 -2 13 -5z m167 -33 c0 -6 -47 -10 -120 -10 -73 0 -120
4 -120 10 0 6 47 10 120 10 73 0 120 -4 120 -10z"/>
<path d="M2923 3430 c0 -25 2 -35 4 -22 2 12 2 32 0 45 -2 12 -4 2 -4 -23z"/>
<path d="M2420 3150 l0 -230 258 2 257 3 -252 2 -253 3 0 201 c0 188 1 201 18
193 9 -5 92 -9 184 -9 91 0 169 -3 173 -6 10 -10 86 13 92 27 7 19 21 17 26
-3 3 -11 5 -8 6 9 1 20 -3 26 -13 22 -8 -3 -17 -1 -21 5 -4 7 -85 11 -241 11
l-234 0 0 -230z m470 200 c0 -6 -80 -10 -220 -10 -140 0 -220 4 -220 10 0 6
80 10 220 10 140 0 220 -4 220 -10z"/>
<path d="M2922 3290 c0 -14 2 -19 5 -12 2 6 2 18 0 25 -3 6 -5 1 -5 -13z"/>
<path d="M2492 3200 c0 -19 2 -27 5 -17 2 9 2 25 0 35 -3 9 -5 1 -5 -18z"/>
<path d="M2563 3173 c20 -2 54 -2 75 0 20 2 3 4 -38 4 -41 0 -58 -2 -37 -4z"/>
<path d="M2490 3150 c0 -5 5 -10 11 -10 5 0 7 5 4 10 -3 6 -8 10 -11 10 -2 0
-4 -4 -4 -10z"/>
<path d="M2593 3143 c42 -2 112 -2 155 0 42 1 7 3 -78 3 -85 0 -120 -2 -77 -3z"/>
<path d="M2922 3125 c0 -16 2 -22 5 -12 2 9 2 23 0 30 -3 6 -5 -1 -5 -18z"/>
<path d="M2493 3080 c0 -25 2 -35 4 -22 2 12 2 32 0 45 -2 12 -4 2 -4 -23z"/>
<path d="M2830 3065 c0 -8 5 -15 10 -15 6 0 10 7 10 15 0 8 -4 15 -10 15 -5 0
-10 -7 -10 -15z"/>
<path d="M2540 3029 c-25 -3 33 -7 129 -7 96 -1 171 1 167 5 -9 9 -233 11
-296 2z"/>
<path d="M2647 2982 c-20 -24 -10 -42 23 -42 34 0 57 22 38 37 -26 20 -46 21
-61 5z m41 -19 c-10 -2 -26 -2 -35 0 -10 3 -2 5 17 5 19 0 27 -2 18 -5z"/>
<path d="M2921 2974 c0 -11 3 -14 6 -6 3 7 2 16 -1 19 -3 4 -6 -2 -5 -13z"/>
<path d="M1771 3296 c8 -8 237 -11 232 -4 -2 5 -56 8 -120 8 -64 0 -114 -2
-112 -4z"/>
<path d="M2123 3285 c21 -7 41 -16 44 -19 4 -3 -39 -6 -95 -6 -64 0 -102 4
-102 10 0 6 -12 0 -27 -14 -25 -23 -25 -25 -8 -42 14 -15 37 -18 132 -19 100
-1 115 1 124 16 15 29 -2 67 -33 70 -7 1 5 5 27 9 35 6 30 7 -30 8 l-70 1 38
-14z m57 -52 c0 -5 -54 -8 -120 -8 -66 0 -120 3 -120 8 0 4 54 7 120 7 66 0
120 -3 120 -7z"/>
<path d="M2273 3293 c15 -2 37 -2 50 0 12 2 0 4 -28 4 -27 0 -38 -2 -22 -4z"/>
<path d="M2195 5270 c69 -7 996 -3 1003 5 3 3 -235 4 -529 3 -294 -1 -507 -4
-474 -8z"/>
<path d="M4407 5273 c-3 -5 33 -8 79 -8 46 -1 78 3 71 7 -15 10 -144 10 -150
1z"/>
<path d="M4586 5272 c-3 -5 1 -9 9 -9 8 0 12 4 9 9 -3 4 -7 8 -9 8 -2 0 -6 -4
-9 -8z"/>
<path d="M2140 5230 c0 -16 2 -30 4 -30 2 0 6 14 8 30 3 17 1 30 -4 30 -4 0
-8 -13 -8 -30z"/>
<path d="M4558 5243 c6 -2 18 -2 25 0 6 3 1 5 -13 5 -14 0 -19 -2 -12 -5z"/>
<path d="M2141 5061 c0 -51 2 -91 5 -88 8 8 11 143 3 164 -4 10 -7 -24 -8 -76z"/>
<path d="M3300 5146 c0 -2 7 -7 16 -10 8 -3 12 -2 9 4 -6 10 -25 14 -25 6z"/>
<path d="M3316 5111 c6 -6 77 -1 84 6 2 2 -17 3 -43 2 -25 -2 -44 -5 -41 -8z"/>
<path d="M3301 4078 c-1 -1093 -1 -1082 -65 -1213 -55 -110 -162 -207 -283
-254 -113 -44 -181 -53 -448 -61 l-260 -8 280 4 c340 4 328 4 340 14 6 5 27
11 48 15 20 4 37 12 37 17 0 5 10 6 21 3 12 -4 19 -3 16 2 -3 5 9 16 28 25 19
8 33 12 30 8 -2 -4 2 -7 9 -7 8 0 12 5 10 12 -4 11 68 65 87 65 5 0 8 3 8 8
-3 20 2 32 13 26 6 -4 8 -3 5 3 -4 6 2 13 13 16 14 4 18 10 13 23 -4 12 -3 15
5 10 7 -4 12 -1 12 8 0 8 7 19 16 24 9 5 15 12 15 15 -3 25 1 37 10 32 6 -4 9
-1 8 6 -6 31 14 81 34 89 15 6 17 9 6 9 -12 1 -14 9 -11 31 2 17 9 30 16 30 6
0 6 4 -3 9 -9 6 -10 14 -4 27 6 11 9 70 7 132 -2 69 1 112 7 112 6 0 7 5 3 12
-16 26 -14 67 4 71 12 3 13 5 2 6 -13 1 -15 95 -14 788 1 434 -2 808 -6 833
-4 25 -8 -399 -9 -942z"/>
<path d="M3641 4004 c1 -582 4 -1045 8 -1029 9 37 6 2074 -3 2082 -3 4 -5
-470 -5 -1053z"/>
<path d="M3798 5053 c46 -2 118 -2 160 0 42 1 5 3 -83 3 -88 0 -123 -2 -77 -3z"/>
<path d="M4140 5050 c-12 -8 -11 -10 8 -10 12 0 22 5 22 10 0 13 -11 13 -30 0z"/>
<path d="M4189 5051 c11 -7 11 -9 0 -14 -9 -3 -6 -6 7 -6 12 -1 21 5 21 14 0
9 -9 15 -21 15 -16 0 -18 -2 -7 -9z"/>
<path d="M3782 3809 l3 -1104 5 1095 c3 602 6 1090 8 1085 1 -6 16 -16 33 -22
20 -8 28 -16 23 -24 -4 -7 -3 -9 4 -6 16 11 43 -4 40 -21 -2 -11 5 -17 20 -18
12 -1 26 -2 31 -3 4 0 27 -16 50 -34 38 -31 71 -43 71 -28 0 11 -41 32 -51 26
-5 -4 -8 -2 -7 3 3 9 -184 135 -219 149 -10 4 -13 -219 -11 -1098z"/>
<path d="M3345 4079 c-4 -6 -5 -12 -2 -15 2 -3 7 2 10 11 7 17 1 20 -8 4z"/>
<path d="M3967 4048 c-16 -12 -17 -52 -18 -480 -2 -490 -1 -498 42 -498 44 0
44 2 47 489 2 478 0 501 -38 501 -9 0 -24 -6 -33 -12z m43 -478 c0 -253 -1
-463 -2 -467 -2 -4 -11 -8 -20 -8 -17 -2 -18 27 -18 467 0 461 0 468 20 468
20 0 20 -7 20 -460z"/>
<path d="M3983 3245 c0 -22 2 -30 4 -17 2 12 2 30 0 40 -3 9 -5 -1 -4 -23z"/>
<path d="M3982 3170 c0 -19 2 -27 5 -17 2 9 2 25 0 35 -3 9 -5 1 -5 -18z"/>
<path d="M3340 3864 c0 -14 4 -23 9 -20 5 3 7 15 4 26 -7 28 -13 25 -13 -6z"/>
<path d="M3340 3550 c0 -5 5 -10 10 -10 6 0 10 5 10 10 0 6 -4 10 -10 10 -5 0
-10 -4 -10 -10z"/>
<path d="M3378 3003 c7 -3 16 -2 19 1 4 3 -2 6 -13 5 -11 0 -14 -3 -6 -6z"/>
<path d="M4480 2981 c0 -11 5 -23 10 -26 6 -4 10 5 10 19 0 14 -4 26 -10 26
-5 0 -10 -9 -10 -19z"/>
<path d="M3650 2925 c0 -27 30 -104 55 -138 43 -60 53 -72 59 -66 3 3 -2 14
-12 25 -9 11 -25 30 -36 42 -10 12 -29 52 -42 89 -13 37 -23 59 -24 48z"/>
<path d="M4480 2913 c0 -10 42 -13 183 -13 128 0 187 -4 195 -12 6 -6 15 -8
19 -5 4 4 -1 15 -10 25 -16 15 -41 17 -202 17 -143 0 -185 -3 -185 -12z"/>
<path d="M4874 2770 c0 -58 1 -81 3 -52 2 28 2 76 0 105 -2 28 -3 5 -3 -53z"/>
<path d="M3600 2815 c0 -15 18 -40 24 -34 3 3 -1 14 -9 25 -8 10 -14 15 -15 9z"/>
<path d="M3750 2786 c0 -8 4 -17 9 -20 5 -4 7 3 4 14 -6 23 -13 26 -13 6z"/>
<path d="M3228 2758 c5 -5 16 -8 23 -6 8 3 3 7 -10 11 -17 4 -21 3 -13 -5z"/>
<path d="M3634 2751 c0 -12 4 -20 8 -19 12 5 56 -44 63 -70 5 -20 8 -23 15
-12 7 12 13 11 32 -6 13 -12 35 -24 51 -28 15 -3 27 -11 27 -17 0 -6 5 -7 10
-4 6 3 10 1 10 -5 0 -7 7 -9 16 -6 9 4 22 2 28 -3 10 -8 42 -15 121 -25 43 -6
376 -8 795 -4 347 2 337 3 -215 9 -494 5 -590 8 -650 23 -103 25 -203 77 -262
136 -40 42 -50 48 -49 31z"/>
<path d="M5171 2538 c-14 -23 -14 -23 8 -4 22 20 25 26 13 26 -4 0 -13 -10
-21 -22z"/>
<path d="M325 2540 c-4 -7 100 -8 327 -4 183 4 335 8 337 10 2 2 -145 4 -327
4 -215 0 -333 -4 -337 -10z"/>
<path d="M1038 2543 c7 -3 16 -2 19 1 4 3 -2 6 -13 5 -11 0 -14 -3 -6 -6z"/>
<path d="M2208 2543 c6 -2 18 -2 25 0 6 3 1 5 -13 5 -14 0 -19 -2 -12 -5z"/>
<path d="M2728 2513 c6 -2 18 -2 25 0 6 3 1 5 -13 5 -14 0 -19 -2 -12 -5z"/>
<path d="M2833 2513 c15 -2 37 -2 50 0 12 2 0 4 -28 4 -27 0 -38 -2 -22 -4z"/>
<path d="M2918 2513 c7 -3 16 -2 19 1 4 3 -2 6 -13 5 -11 0 -14 -3 -6 -6z"/>
<path d="M5636 2460 c-54 -28 -111 -59 -127 -71 -16 -11 -29 -17 -29 -12 0 4
-4 2 -8 -5 -5 -7 -18 -14 -30 -17 -12 -2 -27 -9 -34 -15 -7 -6 -27 -19 -45
-28 -92 -50 -113 -64 -140 -99 -33 -42 -61 -109 -40 -96 8 5 8 2 -1 -9 -8 -10
-10 -26 -6 -44 4 -17 3 -25 -3 -21 -18 11 -4 -57 15 -71 9 -7 17 -17 17 -22 0
-16 45 -51 57 -44 7 4 8 3 4 -4 -4 -7 -3 -12 2 -12 12 0 57 -39 57 -50 0 -5 3
-12 8 -16 4 -4 7 -1 7 6 0 17 29 -19 30 -36 0 -10 -58 -11 -215 -4 -7 0 -10
94 -9 288 3 309 0 348 -23 356 -29 11 -103 -37 -197 -127 l-29 -28 7 -195 c4
-107 10 -202 13 -211 4 -11 3 -14 -5 -9 -8 5 -12 -2 -12 -21 0 -22 2 -25 10
-13 9 14 12 -37 10 -147 0 -18 4 -33 10 -33 5 0 9 -3 9 -7 -6 -39 21 -90 41
-78 5 3 7 -4 5 -15 -2 -11 1 -20 7 -20 5 0 22 -8 36 -19 15 -10 43 -21 62 -24
19 -2 40 -6 45 -7 6 -1 69 -2 142 -1 102 1 135 4 147 16 17 18 40 20 30 3 -4
-7 -3 -8 5 -4 6 4 8 12 5 18 -5 8 -1 9 10 5 9 -4 15 -3 12 2 -3 5 3 11 14 14
11 3 20 12 20 19 0 8 11 20 24 28 13 7 27 22 31 34 4 11 8 23 9 26 1 3 8 16
16 30 9 17 14 59 14 125 1 97 0 101 -31 145 -18 25 -58 65 -88 89 -31 25 -54
49 -52 55 4 13 127 79 127 68 0 -4 4 -2 8 4 7 10 137 85 147 84 3 0 5 3 6 8 0
4 5 12 10 18 5 6 11 24 13 40 3 16 10 62 17 102 9 57 9 75 -1 87 -18 22 -25
20 -134 -35z m124 22 c0 -4 -6 -14 -12 -21 -7 -8 -8 -11 -2 -8 10 6 -16 -187
-27 -197 -18 -16 -92 -45 -101 -40 -7 5 -8 3 -3 -6 6 -10 4 -12 -9 -7 -10 4
-15 3 -11 -3 9 -14 -24 -25 -37 -12 -7 7 14 23 73 52 93 47 95 48 87 55 -5 5
-344 -168 -361 -184 -4 -4 10 -19 31 -33 84 -56 170 -138 192 -184 21 -43 22
-51 11 -111 -6 -35 -9 -69 -5 -75 4 -7 3 -8 -4 -4 -7 4 -12 3 -12 -2 0 -27
-65 -102 -112 -128 -50 -27 -61 -29 -191 -32 -108 -3 -149 0 -188 12 -27 9
-54 14 -59 11 -5 -3 -22 13 -37 36 l-28 42 -3 306 c-1 168 -6 313 -10 321 -4
8 -9 -57 -12 -145 l-6 -160 -2 157 -2 157 58 42 c31 23 74 54 94 70 20 16 39
29 42 29 3 0 6 -115 6 -256 0 -140 -4 -253 -8 -250 -5 3 -9 -26 -9 -65 l-1
-69 36 -16 c43 -18 244 -16 276 3 19 10 19 11 -2 29 -12 9 -19 21 -17 25 3 4
-3 13 -12 20 -14 12 -16 12 -8 -1 11 -18 -96 74 -148 127 l-38 39 16 69 c20
85 47 139 82 162 32 22 455 250 466 252 4 1 7 -3 7 -7z m-205 -302 c7 -12 -63
-42 -78 -33 -6 3 -7 1 -3 -5 8 -14 -43 -42 -72 -39 -28 2 -21 7 63 51 77 39
81 41 90 26z m-438 -392 c-3 -8 -6 -5 -6 6 -1 11 2 17 5 13 3 -3 4 -12 1 -19z
m440 -165 c-38 -72 -119 -116 -234 -127 -91 -9 -240 3 -258 20 -7 7 -16 10
-20 6 -5 -4 -5 -2 -2 4 4 7 0 15 -9 18 -9 4 -15 9 -12 11 3 3 20 -3 39 -12 28
-15 61 -18 184 -18 145 0 152 1 208 29 37 18 69 42 85 66 31 43 40 45 19 3z"/>
<path d="M5656 2412 c-3 -5 1 -9 9 -9 8 0 12 4 9 9 -3 4 -7 8 -9 8 -2 0 -6 -4
-9 -8z"/>
<path d="M5731 2404 c0 -11 3 -14 6 -6 3 7 2 16 -1 19 -3 4 -6 -2 -5 -13z"/>
<path d="M5065 2358 c-11 -6 -28 -20 -39 -30 -11 -10 -28 -20 -38 -24 -17 -5
-18 -21 -18 -216 0 -116 2 -209 5 -206 3 3 5 90 5 195 l1 190 28 27 c15 14 30
23 34 19 4 -3 7 -1 7 6 0 7 3 10 8 7 4 -2 12 7 19 20 6 13 10 24 10 24 -1 0
-11 -6 -22 -12z"/>
<path d="M5577 2359 c7 -7 15 -10 18 -7 3 3 -2 9 -12 12 -14 6 -15 5 -6 -5z"/>
<path d="M5510 2331 c0 -6 4 -13 10 -16 6 -3 7 1 4 9 -7 18 -14 21 -14 7z"/>
<path d="M5316 2230 c-32 -20 -76 -85 -76 -110 1 -11 4 -9 13 5 12 20 13 25
16 48 1 8 4 7 11 -3 9 -13 10 -13 11 0 1 8 0 21 -1 29 -1 9 4 12 15 7 11 -4
14 -2 9 6 -5 7 -2 10 7 6 8 -2 22 4 32 14 22 24 1 23 -37 -2z"/>
<path d="M5200 2006 c0 -2 37 -36 83 -76 l82 -73 -75 76 c-65 67 -90 87 -90
73z"/>
<path d="M5506 1937 c3 -10 9 -15 12 -12 3 3 0 11 -7 18 -10 9 -11 8 -5 -6z"/>
<path d="M5546 1897 c3 -10 9 -15 12 -12 3 3 0 11 -7 18 -10 9 -11 8 -5 -6z"/>
<path d="M5440 1795 c20 -53 -30 -69 -198 -63 -61 1 -105 0 -98 -4 20 -11 228
-11 257 0 15 6 29 8 32 6 3 -3 10 3 16 14 10 19 0 72 -14 72 -2 0 0 -11 5 -25z"/>
<path d="M1600 2443 c0 -7 -5 -13 -10 -13 -6 0 -16 -4 -23 -10 -30 -25 -122
-90 -132 -93 -6 -2 -12 -96 -15 -267 -5 -247 -6 -260 -19 -214 -8 27 -24 58
-35 70 -12 12 -28 30 -36 41 -39 47 -151 106 -269 140 l-85 25 -26 -29 c-14
-15 -32 -37 -40 -49 -23 -32 -91 -112 -131 -152 -20 -20 -39 -51 -43 -69 -4
-18 -15 -34 -24 -37 -9 -2 -75 -1 -147 2 l-130 7 -3 295 c-1 176 -6 298 -12
304 -7 7 -10 -97 -10 -301 0 -270 2 -314 16 -327 23 -23 336 -24 328 -1 -12
29 7 65 64 127 70 75 148 171 154 189 3 9 22 7 79 -10 90 -28 190 -71 184 -81
-2 -3 2 -7 9 -7 21 0 74 -45 103 -87 35 -52 44 -152 19 -206 -9 -19 -14 -26
-10 -15 3 11 8 49 9 85 l4 65 -8 -60 c-12 -94 -62 -169 -137 -205 -41 -20 -56
-22 -152 -17 -143 8 -157 11 -155 25 4 16 3 15 -48 -8 -39 -18 -66 -20 -261
-20 -133 0 -228 4 -245 11 -15 6 -36 12 -47 15 -21 4 -38 24 -63 74 -22 46
-27 164 -18 445 l7 225 62 37 c33 20 68 42 77 50 11 9 26 12 43 7 26 -6 26 -8
28 -103 l2 -96 5 85 c7 94 1 116 -34 132 -20 9 -35 5 -90 -23 -37 -18 -80 -48
-96 -66 -27 -32 -29 -38 -29 -126 0 -51 -3 -169 -6 -264 -7 -183 6 -301 33
-329 9 -8 13 -17 10 -21 -3 -3 19 -27 50 -54 31 -27 58 -47 61 -45 2 3 16 0
31 -6 16 -7 105 -10 241 -10 216 2 274 7 265 22 -7 11 38 18 61 9 13 -5 15 -8
4 -9 -40 -4 55 -20 130 -21 91 -2 160 8 160 22 0 5 5 9 11 9 16 0 89 60 89 73
0 6 7 19 17 29 9 10 14 20 11 23 -2 3 -19 -14 -35 -38 -48 -66 -117 -99 -211
-101 -83 -1 -164 17 -184 42 -12 14 -10 14 11 2 14 -7 63 -15 110 -17 82 -5
107 0 185 32 15 7 17 5 11 -6 -8 -12 -6 -12 8 0 9 7 15 17 12 21 -6 9 30 42
38 34 7 -8 57 71 57 91 0 9 4 13 10 10 12 -7 24 38 17 65 -3 11 -1 20 4 20 8
0 14 -46 10 -78 -5 -34 34 -130 67 -167 20 -22 38 -39 39 -37 8 6 23 1 19 -7
-3 -5 3 -11 13 -14 19 -4 205 -11 316 -10 237 1 386 6 391 15 3 5 12 7 20 4 8
-3 14 -2 14 3 0 5 20 18 44 29 42 20 108 90 112 120 2 8 8 18 14 22 7 4 11 10
11 14 -1 3 -1 7 0 9 3 10 10 52 18 107 8 61 6 68 -22 123 -17 32 -44 68 -61
80 -17 12 -35 27 -41 33 -11 12 -44 21 -112 30 -54 7 -133 -18 -196 -62 -26
-19 -50 -34 -53 -34 -3 0 -3 12 0 28 11 57 10 347 -2 367 -6 11 -12 16 -12 12
0 -4 -9 -3 -20 3 -16 8 -23 7 -37 -9 -9 -11 -20 -18 -24 -15 -5 2 -13 -5 -19
-16 -6 -11 -16 -17 -22 -14 -7 4 -8 3 -4 -4 4 -7 1 -12 -6 -12 -7 0 -24 -12
-37 -25 -13 -14 -26 -25 -30 -25 -11 0 -16 -89 -15 -287 0 -205 5 -194 -82
-188 -26 2 -51 9 -55 16 -5 8 -7 41 -4 74 11 125 14 375 4 375 -6 0 -6 8 1 20
6 11 10 48 8 82 -2 49 -7 63 -23 72 -11 6 -23 16 -27 21 -5 6 -8 5 -8 -2z m47
-684 c15 -5 56 -9 92 -7 l66 3 3 240 4 240 84 68 c76 61 86 66 100 52 9 -8 11
-15 5 -15 -8 0 -11 -69 -12 -212 -1 -117 -5 -195 -8 -173 -7 39 -7 38 -12 -21
-4 -60 2 -76 30 -82 7 -1 10 2 5 9 -5 9 0 10 15 6 13 -3 20 -3 17 0 -3 4 0 13
8 22 8 9 15 19 15 24 1 4 4 7 9 8 19 3 42 21 42 35 0 9 5 12 12 8 7 -5 8 -3 3
6 -6 10 -3 12 14 7 27 -7 53 1 45 14 -4 7 41 14 68 10 4 0 22 -3 40 -5 45 -6
69 -16 62 -27 -3 -5 4 -9 15 -9 11 0 28 -14 41 -35 27 -44 38 -46 13 -3 -36
61 -130 105 -203 95 -55 -7 -122 -43 -183 -98 -69 -61 -75 -51 -9 16 115 117
268 137 372 48 53 -45 92 -131 87 -188 -3 -38 -4 -37 -5 10 -2 36 -5 46 -12
35 -5 -8 -7 -24 -5 -35 2 -11 6 -33 9 -50 l5 -30 -14 30 c-9 20 -14 24 -15 12
0 -29 -46 -111 -82 -146 -18 -19 -53 -43 -78 -55 -42 -20 -63 -21 -367 -24
-196 -2 -337 1 -360 7 -34 9 -36 9 -19 -4 31 -23 88 -27 396 -23 280 3 297 4
343 25 26 12 60 31 74 43 14 11 30 17 36 13 6 -3 7 -1 3 6 -9 14 12 43 25 36
4 -3 13 4 19 16 8 15 9 19 1 15 -15 -10 -13 4 5 34 l15 25 -7 -25 c-6 -23 -5
-24 10 -11 14 11 12 6 -5 -25 -28 -50 -80 -105 -91 -98 -5 3 -7 0 -6 -8 2 -7
-5 -12 -14 -12 -10 1 -16 -3 -15 -9 1 -6 -20 -19 -48 -30 -46 -18 -78 -20
-365 -21 -353 -1 -353 -1 -417 74 -51 60 -53 78 -52 419 l0 316 82 57 82 57 3
-325 2 -325 27 -10z m3 609 c0 -25 -3 -29 -10 -18 -13 20 -13 50 0 50 6 0 10
-15 10 -32z m357 -60 c-3 -8 -6 -5 -6 6 -1 11 2 17 5 13 3 -3 4 -12 1 -19z
m-667 -678 c-6 -12 -14 -19 -17 -17 -2 3 1 15 7 27 6 12 14 19 17 17 2 -3 -1
-15 -7 -27z m-730 -105 c185 0 230 3 256 16 25 13 32 13 42 2 10 -10 5 -16
-25 -29 -59 -25 -430 -26 -495 -1 -25 10 -52 24 -58 32 -9 11 -3 10 21 -3 29
-15 66 -17 259 -17z"/>
<path d="M1604 2080 c0 -173 2 -244 3 -157 2 86 2 228 0 315 -1 86 -3 15 -3
-158z"/>
<path d="M1550 2345 c-7 -8 -9 -15 -6 -15 4 0 14 7 22 15 9 8 11 15 6 15 -5 0
-15 -7 -22 -15z"/>
<path d="M1974 2175 c0 -93 2 -133 3 -88 2 45 2 122 0 170 -1 48 -3 12 -3 -82z"/>
<path d="M1523 2315 c0 -8 4 -12 9 -9 5 3 6 10 3 15 -9 13 -12 11 -12 -6z"/>
<path d="M1887 2267 c-40 -36 -57 -59 -57 -76 0 -30 8 -24 13 10 3 15 11 23
21 23 9 -1 16 3 16 9 0 12 48 57 60 57 5 0 10 7 14 15 9 26 -7 16 -67 -38z"/>
<path d="M1473 2140 c0 -41 2 -58 4 -37 2 20 2 54 0 75 -2 20 -4 3 -4 -38z"/>
<path d="M1832 2135 c0 -16 2 -22 5 -12 2 9 2 23 0 30 -3 6 -5 -1 -5 -18z"/>
<path d="M1831 2014 c1 -49 4 -100 8 -114 7 -25 7 -25 13 -3 3 13 2 26 -3 29
-5 3 -9 41 -8 85 1 44 -2 83 -5 86 -3 4 -6 -34 -5 -83z"/>
<path d="M1473 1855 c-1 -93 2 -180 5 -193 4 -13 6 50 4 140 -4 228 -9 255 -9
53z"/>
<path d="M1834 1835 c-3 -19 -4 -41 -1 -49 3 -7 -1 -24 -10 -36 -14 -20 -22
-21 -102 -18 -47 2 -95 7 -106 11 -13 5 -13 4 3 -4 12 -7 22 -15 22 -18 0 -3
38 -6 84 -6 111 1 127 13 125 97 -1 32 -3 58 -5 58 -2 0 -6 -16 -10 -35z"/>
<path d="M2120 1861 c-44 -14 -84 -38 -105 -62 l-20 -23 25 17 c79 55 183 75
226 42 18 -14 17 -14 -9 -5 -41 15 -91 12 -138 -6 -30 -13 -37 -19 -27 -26 9
-7 7 -8 -8 -3 -13 3 -26 -1 -34 -10 -7 -8 -20 -13 -30 -10 -9 3 -24 -3 -33
-12 -15 -17 -9 -18 121 -15 138 4 202 18 202 44 0 7 -10 26 -23 42 -19 23 -32
29 -73 32 -27 2 -60 0 -74 -5z m119 -57 c12 -11 -16 -18 -73 -19 -51 -1 -63 1
-59 12 3 8 11 12 18 9 6 -2 18 0 26 5 12 8 77 2 88 -7z"/>
<path d="M2292 1830 c18 -25 20 -34 10 -54 -16 -35 -66 -46 -215 -46 -77 0
-126 -4 -122 -9 9 -16 272 -4 308 14 37 18 40 19 31 3 -4 -7 -3 -10 1 -6 5 5
9 19 11 33 1 14 6 35 9 46 5 15 4 19 -4 15 -6 -4 -14 -1 -17 8 -3 8 -12 17
-20 20 -9 3 -6 -5 8 -24z"/>
<path d="M2178 1703 c7 -3 16 -2 19 1 4 3 -2 6 -13 5 -11 0 -14 -3 -6 -6z"/>
<path d="M2068 1683 c7 -3 16 -2 19 1 4 3 -2 6 -13 5 -11 0 -14 -3 -6 -6z"/>
<path d="M1496 1618 c16 -28 27 -38 36 -32 5 3 0 15 -11 25 -23 22 -36 25 -25
7z"/>
<path d="M870 1530 c-9 -6 -10 -10 -3 -10 6 0 15 5 18 10 8 12 4 12 -15 0z"/>
<path d="M393 2345 c0 -22 2 -30 4 -17 2 12 2 30 0 40 -3 9 -5 -1 -4 -23z"/>
<path d="M3940 2295 c-14 -8 -22 -14 -19 -15 3 0 -16 -22 -43 -50 -26 -27 -48
-59 -48 -70 0 -25 116 -140 142 -140 33 0 14 -24 -65 -83 l-78 -58 7 -44 6
-45 -33 -1 c-67 -2 -114 3 -126 13 -9 7 -13 42 -13 109 0 97 -1 100 -25 109
-26 10 -44 1 -140 -68 -92 -67 -222 -126 -305 -139 -19 -3 -43 -9 -52 -14 -15
-8 -193 -5 -228 4 -66 17 -97 57 -85 109 14 61 15 99 3 92 -7 -4 -8 -3 -4 4 4
7 4 12 1 12 -14 0 -44 -88 -43 -125 l1 -40 8 45 7 45 -1 -52 c-1 -28 1 -49 5
-47 4 2 9 -4 13 -15 16 -53 173 -84 313 -62 139 22 244 67 389 167 51 35 100
64 108 64 12 0 15 -19 15 -110 0 -121 0 -121 70 -134 41 -7 137 7 152 22 13
13 1 85 -12 77 -6 -3 -7 0 -4 7 6 16 157 122 179 126 13 3 15 -12 15 -101 0
-134 -2 -132 141 -132 102 0 110 1 134 25 17 18 23 31 18 48 -3 14 -11 21 -19
18 -11 -4 -11 -1 -3 12 15 23 149 103 160 96 5 -3 8 -33 7 -67 l-1 -62 -7 60
-7 60 -1 -80 c0 -49 2 -72 7 -60 8 19 9 18 12 -5 6 -36 43 -51 121 -48 88 5
95 13 72 75 -10 26 -18 51 -16 56 1 4 -3 7 -9 7 -5 0 -7 5 -4 10 3 6 -3 10
-15 10 -12 0 -18 5 -15 10 4 6 11 7 17 4 6 -4 8 -2 5 3 -4 6 30 37 77 71 l85
61 22 -57 c12 -32 22 -81 22 -112 1 -82 -7 -189 -14 -184 -4 2 -12 -10 -20
-27 -19 -47 -56 -87 -103 -111 -48 -25 -189 -36 -249 -20 -20 6 -37 7 -37 2 0
-21 128 -34 210 -20 83 14 141 52 177 115 28 49 30 29 3 -24 -10 -21 -37 -53
-60 -71 -37 -30 -46 -32 -137 -36 -54 -2 -111 -7 -128 -10 -24 -4 -27 -3 -15
6 13 10 12 11 -4 6 -14 -5 -30 5 -61 38 l-42 44 -54 -26 c-48 -24 -65 -27
-164 -27 -60 0 -126 4 -145 8 l-35 8 30 -17 c23 -13 56 -18 140 -18 99 -1 116
2 167 26 52 24 56 25 53 7 -3 -12 2 -19 12 -19 15 0 10 -15 -5 -15 -15 -1 -62
-38 -57 -45 5 -7 -17 -20 -35 -20 -4 0 -16 12 -25 28 -10 15 -12 21 -4 15 15
-15 39 -17 39 -4 0 18 -34 21 -126 10 -82 -9 -101 -8 -138 6 -40 16 -86 60
-86 85 0 15 -8 13 -42 -11 -65 -47 -166 -61 -253 -34 -27 8 -51 12 -55 10 -9
-5 -43 32 -60 63 -6 13 -9 35 -6 48 6 23 6 23 -39 -7 -67 -45 -166 -87 -258
-109 -146 -35 -370 -21 -444 28 -13 8 -23 11 -23 8 0 -22 -42 22 -64 66 -50
99 -30 233 50 341 31 43 39 48 62 42 31 -7 55 -33 48 -52 -3 -7 -1 -13 4 -13
6 0 10 15 10 34 0 30 -4 36 -40 50 -45 18 -69 10 -91 -31 -7 -13 -15 -21 -17
-18 -3 3 -21 -28 -41 -67 -34 -68 -36 -79 -36 -168 0 -89 2 -98 30 -140 16
-25 28 -49 27 -53 -1 -5 2 -6 6 -3 5 3 21 -5 36 -19 37 -35 122 -72 181 -79
127 -17 353 -3 375 23 4 5 58 30 120 56 22 9 56 29 74 44 9 7 16 9 16 3 0 -13
88 -102 101 -102 6 0 8 -4 5 -9 -7 -11 162 -24 208 -16 20 4 36 10 36 14 0 3
16 15 35 25 19 11 35 24 35 29 0 5 9 -2 21 -17 11 -14 27 -26 35 -26 8 0 14
-4 14 -10 0 -5 17 -11 38 -11 20 -1 49 -4 64 -8 l28 -6 -35 -38 c-19 -21 -35
-43 -35 -48 0 -5 12 -22 27 -37 15 -15 27 -29 26 -32 -1 -3 3 -4 8 -3 5 2 9
-4 9 -12 0 -8 5 -14 12 -12 6 1 13 -5 15 -14 3 -13 -3 -16 -28 -13 -36 4 -75
-21 -60 -40 12 -15 19 -76 9 -76 -8 0 -20 11 -80 79 -38 42 -52 45 -101 25
-16 -6 -17 -12 -11 -38 14 -52 11 -189 -4 -205 -11 -12 -11 -17 5 -32 23 -23
41 -25 81 -9 25 9 32 17 27 29 -24 57 -27 73 -17 83 10 10 24 -1 99 -86 37
-41 68 -47 79 -13 4 12 8 65 9 118 2 99 15 144 49 163 10 6 30 21 43 33 23 21
27 21 49 6 29 -19 30 -29 3 -43 -17 -10 -19 -18 -14 -48 8 -52 9 -194 1 -213
-12 -28 16 -38 99 -35 114 3 125 8 125 56 0 33 -15 55 -30 45 -9 -6 -9 -9 0
-15 7 -4 9 -17 4 -33 -6 -26 -8 -27 -84 -27 -43 0 -87 -3 -97 -6 -14 -4 -13
-1 5 12 20 15 22 24 22 120 0 88 -3 105 -17 113 -13 8 6 10 72 11 l90 0 1 -30
c1 -35 -6 -38 -24 -10 -8 14 -23 20 -47 20 -35 0 -35 0 -35 -45 0 -45 0 -45
35 -45 19 0 35 5 35 10 0 6 3 10 8 10 4 0 8 -18 8 -40 1 -22 -2 -40 -7 -40 -5
0 -9 7 -9 15 0 8 -8 15 -17 16 -10 0 -26 2 -35 4 -15 3 -18 -4 -18 -46 l0 -49
39 0 c39 0 68 20 56 40 -3 5 1 20 9 32 10 14 12 27 6 38 -6 11 -4 26 6 44 23
46 18 73 -17 92 -17 8 -40 14 -50 11 -26 -7 -24 8 4 30 13 10 34 33 47 51 24
32 40 41 40 22 0 -6 23 -33 51 -61 38 -37 48 -54 40 -62 -12 -12 -14 -46 -5
-71 7 -18 39 -22 49 -6 3 6 11 10 16 10 11 0 8 -145 -4 -188 -3 -12 -3 -23 1
-23 4 -1 33 -2 65 -3 61 -2 84 13 67 44 -4 8 -10 50 -13 93 -4 59 -3 77 7 77
8 0 19 -7 26 -15 17 -20 36 -4 45 37 11 46 -10 60 -95 64 -40 2 -74 5 -76 7
-2 2 13 22 35 44 57 60 58 86 7 138 l-42 42 33 12 c41 15 106 79 120 118 29
82 34 103 40 163 4 57 0 97 -21 190 -8 37 -38 89 -55 95 -12 5 -85 -36 -101
-56 -3 -4 -23 -16 -45 -28 -22 -11 -36 -21 -32 -21 5 0 1 -7 -8 -16 -19 -19
-15 -46 16 -111 11 -23 18 -47 15 -52 -6 -10 -118 -7 -136 4 -5 3 -10 43 -10
91 0 54 -4 83 -10 79 -5 -3 -10 -1 -10 4 0 16 -46 13 -60 -4 -7 -8 -18 -15
-24 -15 -6 0 -33 -16 -59 -36 -45 -33 -48 -38 -46 -74 2 -22 1 -42 -2 -45 -9
-8 -182 -10 -207 -1 -22 7 -23 12 -21 98 1 71 -2 94 -15 109 -18 21 -32 24
-41 9 -9 -15 -22 -12 -22 4 0 8 10 20 21 26 34 19 96 100 96 125 0 14 -14 35
-34 53 -19 17 -32 33 -29 36 4 3 1 6 -5 6 -6 0 -23 11 -38 25 -31 29 -31 29
-64 10z m94 -73 c31 -29 56 -59 56 -65 0 -11 -120 -133 -123 -125 -1 2 -29 32
-62 66 l-59 62 59 60 c33 33 63 59 66 58 4 -2 32 -27 63 -56z m-1200 -248 c3
-8 2 -12 -4 -9 -6 3 -10 1 -10 -6 0 -7 -2 -10 -5 -7 -5 5 4 38 10 38 2 0 6 -7
9 -16z m2023 -236 c-3 -8 -6 -5 -6 6 -1 11 2 17 5 13 3 -3 4 -12 1 -19z
m-1373 -113 c-43 -31 -165 -85 -235 -104 -94 -26 -331 -32 -345 -10 -3 5 -12
9 -20 9 -21 0 -124 49 -124 59 0 4 22 -3 48 -16 106 -52 330 -56 475 -9 79 26
156 62 192 90 11 8 22 10 24 5 1 -6 -5 -16 -15 -24z m425 -62 c-21 -26 -32
-33 -47 -28 -7 3 -10 0 -7 -5 21 -34 -153 -41 -215 -9 -60 31 -70 53 -11 23
52 -26 171 -21 229 9 58 30 68 32 51 10z m596 -77 c30 -2 53 0 51 3 -3 4 4 7
14 7 21 0 18 -6 -36 -65 -31 -34 -32 -34 -43 -12 -7 12 -29 38 -49 57 -25 24
-29 32 -14 24 12 -6 47 -12 77 -14z m-258 -30 l42 -45 41 45 42 45 58 -55 59
-56 -26 -31 c-14 -17 -39 -44 -56 -60 l-30 -30 -38 40 c-22 22 -39 45 -39 50
0 25 -20 16 -61 -26 -24 -26 -35 -41 -24 -33 20 14 20 14 2 -6 l-18 -22 -56
60 -57 59 54 54 c30 30 57 55 60 55 3 0 24 -20 47 -44z m458 -10 l59 -54 -39
-43 c-21 -24 -46 -48 -54 -53 -9 -5 6 14 34 43 59 61 49 69 -12 9 -24 -23 -43
-51 -43 -63 0 -16 -13 -7 -58 40 l-59 60 51 56 c28 31 53 57 56 58 3 0 32 -23
65 -53z m-445 -121 c-7 -9 -15 -13 -18 -10 -3 2 1 11 8 20 7 9 15 13 18 10 3
-2 -1 -11 -8 -20z m-226 -175 c43 -49 78 -90 79 -90 1 0 1 35 -1 77 -2 58 -7
81 -20 91 -13 10 -8 12 34 12 38 -1 45 -3 32 -11 -16 -9 -18 -26 -18 -129 0
-66 -4 -120 -9 -120 -9 0 -164 174 -169 190 -11 31 -17 -1 -14 -76 3 -62 7
-87 18 -91 27 -10 14 -18 -31 -18 -45 0 -58 8 -30 19 12 4 15 26 15 110 0 89
-3 107 -17 115 -15 9 -11 10 18 11 32 0 42 -8 113 -90z m809 58 c-1 -18 -2
-35 -2 -38 -1 -3 -7 6 -14 20 -9 17 -22 26 -45 28 l-32 3 0 -104 c0 -98 1
-105 23 -115 18 -9 12 -11 -38 -11 -45 0 -56 2 -42 10 14 8 17 26 17 114 l0
105 -31 0 c-22 0 -32 -5 -36 -20 -8 -30 -23 -24 -23 10 l0 30 113 0 112 0 -2
-32z m-404 -45 c-8 -9 -16 -10 -22 -4 -13 13 0 31 19 24 11 -4 12 -8 3 -20z
m5 -99 c14 -5 14 -8 0 -21 -16 -16 -27 -12 -30 12 -2 16 5 18 30 9z"/>
<path d="M4022 2117 c-29 -29 -52 -58 -52 -65 0 -7 15 4 33 25 17 21 43 47 57
59 14 12 22 25 19 28 -3 3 -29 -18 -57 -47z"/>
<path d="M4157 1434 l-38 -44 34 -36 c22 -23 34 -31 34 -20 0 8 -5 12 -10 9
-6 -4 -8 1 -4 11 4 9 3 15 -2 12 -4 -3 -17 4 -27 16 -17 19 -17 21 -2 15 13
-4 15 -2 11 10 -4 10 -2 14 4 10 6 -4 19 5 28 20 l18 27 34 -39 c18 -21 33
-34 33 -29 0 6 -17 26 -37 46 l-38 37 -38 -45z"/>
<path d="M4353 1457 c-4 -7 -22 -24 -40 -39 -25 -20 -29 -27 -17 -32 8 -3 13
-2 10 3 -6 8 17 23 39 26 6 0 9 6 8 12 -2 7 6 15 17 18 11 4 18 11 15 16 -9
13 -23 11 -32 -4z"/>
<path d="M4420 1425 c0 -5 5 -17 10 -25 5 -8 10 -10 10 -5 0 6 -5 17 -10 25
-5 8 -10 11 -10 5z"/>
<path d="M4415 1340 c-27 -28 -45 -50 -39 -50 13 0 99 88 93 95 -3 2 -27 -18
-54 -45z"/>
<path d="M4329 1364 c15 -32 38 -48 47 -33 4 7 3 9 -4 5 -5 -3 -20 6 -32 21
-13 18 -17 20 -11 7z"/>
<path d="M4607 1435 c-4 -9 1 -11 14 -8 26 7 32 19 9 20 -10 1 -21 -4 -23 -12z"/>
<path d="M4571 1393 c0 -11 3 -13 6 -5 2 6 9 10 14 6 5 -3 9 0 9 5 0 6 -7 11
-15 11 -8 0 -15 -8 -14 -17z"/>
<path d="M4696 1398 c3 -5 10 -6 15 -3 13 9 11 12 -6 12 -8 0 -12 -4 -9 -9z"/>
<path d="M394 2040 c0 -146 2 -205 3 -132 2 72 2 192 0 265 -1 72 -3 13 -3
-133z"/>
<path d="M3110 2250 c0 -5 -4 -10 -9 -10 -4 0 -34 -26 -66 -57 -50 -50 -56
-60 -52 -88 10 -60 167 -186 167 -134 0 5 5 7 10 4 6 -4 9 -2 8 3 -2 6 12 24
31 41 l35 31 33 -31 c18 -18 29 -37 26 -42 -3 -6 -1 -7 5 -3 7 4 12 2 12 -3 0
-22 50 -11 73 15 12 15 39 44 60 66 20 22 37 49 37 60 0 22 -93 124 -122 134
-10 3 -16 9 -13 14 14 23 -31 -1 -66 -35 -36 -35 -78 -57 -63 -34 3 5 1 9 -5
9 -5 0 -22 11 -37 25 -15 14 -31 25 -36 25 -5 0 -6 5 -3 10 3 6 -1 10 -9 10
-9 0 -16 -4 -16 -10z m67 -72 l53 -52 53 51 52 52 63 -60 c37 -36 62 -69 62
-82 0 -11 -3 -18 -6 -14 -7 7 -39 -22 -39 -35 0 -4 -4 -8 -10 -9 -15 -1 -45
-31 -40 -39 3 -4 -2 -14 -11 -21 -13 -11 -18 -10 -27 6 -6 11 -28 38 -49 59
-21 22 -38 45 -38 53 0 23 -14 15 -69 -41 -33 -34 -49 -56 -42 -61 7 -3 10 -1
9 6 -2 7 4 14 12 14 8 0 14 6 13 12 -1 5 12 23 29 39 l32 29 -17 -27 c-10 -16
-15 -28 -12 -28 2 0 -12 -15 -32 -34 -35 -32 -38 -33 -50 -16 -7 10 -35 41
-63 68 -27 27 -50 52 -50 54 0 6 113 124 120 127 2 0 28 -22 57 -51z"/>
<path d="M3079 2157 c-37 -43 -45 -57 -31 -57 4 0 7 3 7 8 0 15 17 32 26 26 5
-3 8 0 7 6 -3 12 17 20 54 23 16 1 16 3 1 19 -9 10 -19 18 -22 18 -3 -1 -22
-20 -42 -43z"/>
<path d="M3321 2186 c-8 -9 -8 -16 -2 -20 5 -4 13 -1 17 5 4 8 9 7 15 -2 4 -7
10 -11 14 -8 3 3 -3 13 -14 23 -16 14 -20 15 -30 2z"/>
<path d="M3285 2150 c-3 -5 -2 -10 4 -10 5 0 13 5 16 10 3 6 2 10 -4 10 -5 0
-13 -4 -16 -10z"/>
<path d="M3250 2120 c-13 -8 -12 -10 3 -10 11 0 15 -4 11 -12 -4 -7 -3 -8 4
-4 6 4 9 13 5 21 -6 18 -4 17 -23 5z"/>
<path d="M3379 2093 c-12 -16 -12 -17 2 -6 9 7 20 9 24 5 5 -4 5 -1 1 6 -9 16
-11 15 -27 -5z"/>
<path d="M3385 2050 c-33 -33 -56 -60 -52 -60 5 0 19 12 32 26 14 15 29 23 36
18 8 -5 9 -3 4 5 -4 8 4 24 21 42 15 16 26 29 23 29 -3 0 -31 -27 -64 -60z"/>
<path d="M3305 2051 c-3 -5 -2 -12 3 -15 5 -3 9 1 9 9 0 17 -3 19 -12 6z"/>
<path d="M3096 2038 c3 -5 10 -6 15 -3 13 9 11 12 -6 12 -8 0 -12 -4 -9 -9z"/>
<path d="M262 2060 c0 -14 2 -19 5 -12 2 6 2 18 0 25 -3 6 -5 1 -5 -13z"/>
<path d="M950 2010 c-6 -11 -8 -20 -6 -20 3 0 10 9 16 20 6 11 8 20 6 20 -3 0
-10 -9 -16 -20z"/>
<path d="M2767 1998 c-57 -76 -72 -118 -72 -208 0 -72 4 -91 24 -123 33 -53
39 -38 7 19 -37 66 -34 145 9 225 8 14 12 29 9 32 -3 3 4 11 16 17 12 6 19 14
16 17 -3 4 1 15 11 25 9 10 14 21 11 24 -3 3 -17 -10 -31 -28z"/>
<path d="M256 1978 c-12 -47 -6 -254 9 -306 9 -29 20 -52 25 -52 12 0 7 25 -9
44 -9 10 -11 28 -7 49 4 23 3 28 -4 17 -12 -17 -9 156 4 200 6 22 5 22 -4 5
-8 -16 -9 -11 -5 23 6 45 1 56 -9 20z"/>
<path d="M4755 1989 c-10 -15 3 -25 16 -12 7 7 7 13 1 17 -6 3 -14 1 -17 -5z"/>
<path d="M3634 1885 c0 -55 1 -76 3 -47 2 29 2 74 0 100 -2 26 -3 2 -3 -53z"/>
<path d="M4703 1956 c-37 -24 -39 -31 -17 -66 l15 -25 -7 25 c-11 41 -10 45 8
44 10 -1 15 2 13 7 -3 4 3 12 12 18 10 5 16 12 13 14 -3 3 -20 -5 -37 -17z"/>
<path d="M3550 1924 c-36 -25 -72 -49 -80 -54 -8 -5 -11 -12 -7 -17 5 -4 15 1
23 11 8 11 14 16 14 10 0 -5 4 -4 8 2 14 20 85 63 95 57 6 -3 7 -1 3 5 -3 5 0
12 6 15 7 2 11 7 8 10 -3 3 -35 -14 -70 -39z"/>
<path d="M3955 1915 c-59 -43 -60 -45 -60 -91 0 -39 -4 -50 -28 -68 -23 -17
-42 -21 -105 -20 -44 0 -88 6 -102 13 -24 13 -24 13 -7 -5 14 -15 36 -20 97
-22 44 -2 88 -1 98 4 9 4 20 8 24 8 21 3 46 49 41 78 -5 36 15 81 34 74 7 -3
17 3 22 12 6 9 11 13 11 8 0 -6 9 0 21 12 39 42 14 40 -46 -3z"/>
<path d="M890 1934 c-11 -12 -11 -15 1 -12 8 2 13 -3 11 -10 -1 -8 2 -11 8 -7
8 5 8 11 1 19 -6 7 -8 16 -4 19 3 4 4 7 1 7 -3 0 -11 -7 -18 -16z"/>
<path d="M4405 1895 c-36 -22 -41 -30 -45 -71 -7 -69 -36 -87 -148 -92 -48 -2
-105 1 -126 7 -27 7 -36 7 -29 0 28 -28 173 -34 236 -10 15 6 27 8 27 5 0 -4
6 -1 13 5 8 6 17 8 21 4 4 -4 4 0 0 10 -3 10 -1 17 5 17 6 0 11 9 11 19 0 11
6 21 13 24 10 4 10 7 0 18 -17 18 -16 29 3 29 9 0 12 5 8 12 -5 7 -2 9 7 6 8
-3 24 6 37 18 29 30 18 30 -33 -1z"/>
<path d="M850 1895 c-9 -10 -9 -15 -1 -15 6 0 11 5 11 11 0 5 5 7 12 3 7 -4 8
-3 4 4 -9 15 -11 15 -26 -3z"/>
<path d="M906 1860 c-24 -27 -36 -49 -35 -68 l1 -27 8 29 c9 29 47 76 61 76 4
0 -6 -13 -22 -30 -39 -39 -36 -71 8 -83 68 -20 111 18 79 68 -9 14 -14 25 -10
25 10 0 -17 30 -37 40 -13 8 -25 1 -53 -30z m79 0 c3 -6 -1 -7 -9 -4 -18 7
-21 14 -7 14 6 0 13 -4 16 -10z m-17 -32 c21 -21 14 -48 -11 -48 -20 0 -24 5
-25 30 -1 31 15 39 36 18z m-38 -22 c0 -3 -4 -8 -10 -11 -5 -3 -10 -1 -10 4 0
6 5 11 10 11 6 0 10 -2 10 -4z"/>
<path d="M1310 1886 c0 -2 8 -10 18 -17 15 -13 16 -12 3 4 -13 16 -21 21 -21
13z"/>
<path d="M860 1870 c-8 -5 -12 -12 -9 -15 4 -3 12 1 19 10 14 17 11 19 -10 5z"/>
<path d="M808 1853 c-23 -28 -33 -50 -12 -28 10 11 25 26 33 33 8 6 10 12 4
12 -5 0 -17 -8 -25 -17z"/>
<path d="M3433 1845 c-10 -11 -9 -13 6 -12 11 1 17 7 14 14 -6 16 -5 16 -20
-2z"/>
<path d="M1130 1832 c0 -12 -6 -37 -14 -55 l-13 -32 44 0 c63 2 67 13 23 65
-35 40 -39 42 -40 22z"/>
<path d="M2764 1838 c-4 -7 -4 -10 1 -6 4 4 15 2 24 -5 14 -11 14 -10 2 6 -16
20 -18 21 -27 5z"/>
<path d="M3356 1805 c-11 -8 -17 -17 -14 -20 2 -3 13 4 23 15 21 23 18 25 -9
5z"/>
<path d="M2811 1794 c19 -23 68 -46 87 -41 14 4 14 5 -2 6 -11 0 -34 12 -52
26 -37 28 -53 33 -33 9z"/>
<path d="M1218 1775 c2 -14 -1 -32 -8 -40 -7 -8 -8 -15 -3 -15 5 0 16 9 26 20
9 11 12 20 7 20 -6 0 -10 6 -10 14 0 8 -4 17 -9 20 -4 3 -6 -6 -3 -19z"/>
<path d="M1036 1773 c-10 -31 -49 -47 -98 -40 -33 4 -39 3 -24 -5 45 -25 157
18 136 52 -6 9 -10 7 -14 -7z"/>
<path d="M4730 1762 c0 -7 -3 -11 -7 -10 -5 1 -21 -4 -38 -11 -29 -12 -124
-10 -190 4 -22 5 -26 4 -15 -4 8 -5 17 -8 21 -5 4 2 10 0 14 -6 8 -13 172 -13
180 0 4 6 10 8 15 5 10 -6 35 23 26 32 -3 3 -6 1 -6 -5z"/>
<path d="M402 1744 c10 -10 20 -16 22 -13 3 3 -5 11 -17 18 -21 13 -21 12 -5
-5z"/>
<path d="M765 1741 c-6 -5 -28 -11 -50 -14 l-40 -4 41 -1 c26 -1 46 3 54 13
14 16 10 21 -5 6z"/>
<path d="M855 1739 c-3 -4 2 -6 10 -5 21 3 28 13 10 13 -9 0 -18 -4 -20 -8z"/>
<path d="M2920 1740 c0 -4 37 -8 83 -8 45 -1 78 1 72 3 -21 7 -155 12 -155 5z"/>
<path d="M1149 1714 c19 -8 42 -13 50 -11 9 3 5 5 -9 6 -20 1 -22 3 -10 11 11
7 4 10 -25 9 l-40 0 34 -15z"/>
<path d="M3758 1703 c6 -2 18 -2 25 0 6 3 1 5 -13 5 -14 0 -19 -2 -12 -5z"/>
<path d="M3546 1660 c7 -30 31 -58 59 -71 18 -9 19 -9 3 4 -10 8 -14 17 -10
21 4 4 0 6 -8 4 -9 -2 -14 3 -12 12 2 8 0 12 -4 7 -4 -4 -14 5 -21 20 -12 26
-12 26 -7 3z"/>
<path d="M2760 1625 c0 -8 2 -15 4 -15 2 0 13 -3 23 -6 17 -5 17 -5 0 6 -9 6
-15 15 -12 21 4 5 1 9 -4 9 -6 0 -11 -7 -11 -15z"/>
<path d="M3956 1598 c3 -4 9 -8 15 -8 5 0 9 4 9 8 0 5 -7 9 -15 9 -8 0 -12 -4
-9 -9z"/>
<path d="M4398 1598 c14 -14 45 -20 37 -8 -2 4 -14 10 -26 13 -16 4 -19 3 -11
-5z"/>
<path d="M578 1573 c6 -2 18 -2 25 0 6 3 1 5 -13 5 -14 0 -19 -2 -12 -5z"/>
<path d="M4503 1573 c9 -2 23 -2 30 0 6 3 -1 5 -18 5 -16 0 -22 -2 -12 -5z"/>
<path d="M4568 1573 c7 -3 16 -2 19 1 4 3 -2 6 -13 5 -11 0 -14 -3 -6 -6z"/>
<path d="M4297 1533 c-9 -2 -15 -9 -12 -14 9 -14 51 -11 65 6 15 18 -1 20 -19
3 -11 -10 -13 -10 -7 0 7 12 4 13 -27 5z"/>
<path d="M1025 1256 c-20 -17 -26 -71 -10 -92 13 -18 14 -18 37 4 14 12 27 22
30 22 3 0 6 -36 6 -81 2 -57 -2 -87 -13 -101 -13 -19 -12 -23 3 -34 18 -14 72
-18 109 -8 39 11 14 24 -45 24 -44 1 -53 3 -39 11 14 8 17 26 17 114 l0 105
-31 0 c-22 0 -32 -5 -36 -20 -8 -30 -23 -24 -23 10 l0 30 109 0 109 0 4 -36 4
-37 -21 27 c-13 16 -31 26 -48 26 l-27 0 0 -103 c0 -102 0 -104 26 -116 24
-10 26 -10 18 6 -9 21 -17 118 -12 157 l3 28 27 -21 27 -21 15 22 c22 31 20
64 -5 81 -25 18 -213 19 -234 3z"/>
<path d="M1452 1254 c-12 -8 -22 -24 -22 -34 0 -10 -5 -22 -10 -25 -6 -4 -8
-10 -5 -15 3 -4 -2 -13 -10 -20 -8 -7 -15 -21 -15 -31 0 -10 -5 -21 -11 -24
-5 -4 -8 -12 -6 -18 2 -7 -7 -29 -20 -49 -37 -60 -27 -79 38 -74 34 3 50 14
48 34 -5 54 17 68 57 36 10 -8 13 -12 6 -9 -10 5 -13 0 -10 -21 3 -25 9 -30
47 -37 70 -14 122 24 74 52 -10 6 -14 11 -9 11 5 0 2 8 -6 18 -9 9 -21 35 -28
57 -7 22 -18 50 -26 62 -8 12 -15 31 -17 42 -3 20 -34 61 -46 61 -4 0 -17 -7
-29 -16z m77 -121 c24 -60 53 -115 64 -124 20 -16 19 -17 -32 -20 -29 -2 -55
-1 -58 4 -2 4 3 7 11 7 19 0 20 17 2 49 -11 19 -22 25 -52 25 -34 1 -41 -3
-52 -29 -11 -26 -11 -31 4 -42 15 -11 11 -13 -31 -13 -45 0 -48 1 -29 14 11 8
40 64 64 125 25 61 49 111 55 111 6 0 30 -48 54 -107z"/>
<path d="M1452 1153 c-5 -15 -13 -35 -17 -44 -5 -14 0 -17 29 -17 20 0 36 1
36 3 0 2 -8 22 -19 45 l-18 42 -11 -29z"/>
<path d="M1740 1263 c-29 -11 -41 -25 -31 -37 11 -13 17 -203 7 -213 -3 -3 -6
-15 -6 -25 0 -16 9 -18 64 -18 69 0 83 10 60 45 -20 31 -7 67 24 63 30 -4 40
-41 17 -65 -22 -21 -4 -40 46 -48 46 -8 98 17 81 38 -13 16 -16 191 -4 214 16
30 -7 48 -59 48 -59 0 -85 -19 -65 -47 17 -24 10 -55 -15 -61 -29 -8 -44 27
-24 56 12 19 13 26 3 34 -17 13 -78 23 -98 16z m78 -35 c-9 -7 -18 -32 -20
-55 l-4 -43 58 0 58 0 0 45 c0 31 -5 47 -17 54 -14 8 -4 10 42 10 54 0 58 -1
41 -14 -16 -12 -18 -27 -17 -112 1 -78 5 -101 18 -110 14 -11 7 -13 -43 -13
-45 1 -55 3 -41 11 12 7 17 23 17 59 l0 50 -59 0 -59 0 5 -47 c3 -27 11 -53
19 -59 22 -18 18 -19 -43 -15 -42 2 -52 6 -40 13 14 7 17 26 17 113 0 89 -3
106 -17 114 -14 8 -4 10 41 11 50 0 57 -2 44 -12z"/>
<path d="M2210 1252 c-20 -22 -40 -61 -40 -78 0 -8 -4 -14 -10 -14 -5 0 -9 -3
-8 -7 2 -12 -10 -42 -42 -103 -36 -69 -29 -89 31 -84 47 3 58 14 51 51 -3 18
-1 24 7 19 6 -4 11 -2 11 3 0 17 27 13 34 -4 3 -8 3 -21 0 -29 -9 -22 37 -47
77 -42 19 3 38 5 42 5 5 1 5 6 2 11 -3 6 -30 10 -58 10 -39 1 -48 3 -35 10 15
9 15 14 4 42 -12 28 -18 31 -56 31 -38 0 -44 -3 -56 -32 -11 -27 -11 -33 1
-37 29 -11 14 -19 -27 -16 -35 4 -39 6 -26 16 9 6 37 62 63 124 27 62 53 112
59 112 6 0 31 -51 55 -114 33 -86 49 -117 67 -125 19 -8 24 -8 24 4 0 8 -4 15
-9 15 -10 0 -36 54 -78 163 -17 47 -46 87 -61 87 -4 -1 -14 -8 -22 -18z"/>
<path d="M2692 1250 c-38 -18 -76 -71 -86 -120 -5 -26 0 -46 20 -87 15 -29 33
-53 39 -53 7 0 18 -7 25 -15 7 -9 19 -14 27 -11 7 3 13 2 13 -2 0 -9 59 -8 85
2 40 15 49 23 58 50 7 21 5 32 -9 47 -17 19 -18 19 -39 -1 -27 -25 -77 -26
-98 -2 -23 26 -22 94 2 116 31 28 61 28 83 1 23 -29 31 -31 52 -9 27 26 17 83
-15 87 -8 2 -20 6 -26 10 -19 12 -94 5 -131 -13z m158 -47 c0 -20 -4 -32 -10
-28 -5 3 -10 12 -10 20 0 31 -86 35 -118 5 -43 -40 -37 -142 11 -175 12 -8 39
-15 59 -15 31 0 41 5 50 25 15 34 30 32 22 -2 -9 -34 -20 -42 -59 -44 -82 -3
-126 16 -150 67 -19 40 -19 65 -1 109 22 52 68 76 144 74 l62 -2 0 -34z"/>
<path d="M3070 1242 c-11 -14 -23 -37 -27 -51 -3 -14 -13 -36 -21 -48 -8 -13
-11 -23 -7 -23 4 0 0 -11 -9 -25 -9 -13 -16 -31 -16 -39 0 -8 -9 -21 -21 -30
-15 -10 -19 -20 -14 -35 7 -23 6 -23 50 -26 49 -3 65 10 58 50 -6 36 3 44 26
23 11 -10 13 -10 7 0 -8 14 3 16 23 3 8 -5 9 -11 3 -15 -13 -8 -10 -29 7 -50
10 -11 26 -14 64 -11 61 5 77 17 54 43 -9 10 -17 25 -17 32 0 7 -6 21 -14 29
-7 9 -28 52 -46 96 -17 44 -36 84 -41 89 -17 18 -39 14 -59 -12z m50 -12 c0
-22 84 -206 101 -222 11 -9 19 -18 19 -20 0 -1 -26 -1 -57 1 -42 2 -52 6 -40
12 15 9 15 14 4 41 -12 28 -17 31 -57 31 -42 0 -45 -2 -54 -32 -7 -26 -6 -34
10 -47 18 -15 18 -15 1 -10 -10 3 -33 6 -50 6 -30 0 -30 0 -11 18 10 10 39 66
63 125 25 63 49 107 57 107 8 0 14 -4 14 -10z"/>
<path d="M3082 1160 c-26 -67 -25 -69 7 -67 34 2 35 6 16 57 l-13 35 -10 -25z"/>
<path d="M3353 1255 c-22 -15 -24 -29 -9 -53 14 -24 9 -172 -8 -191 -12 -13
-12 -18 0 -28 7 -7 18 -13 24 -13 5 0 10 -4 10 -8 0 -4 26 -5 58 -1 31 4 65 8
75 8 10 1 31 15 47 31 34 34 40 79 14 104 -11 11 -14 25 -9 47 10 43 -11 85
-50 103 -42 20 -124 21 -152 1z m151 -26 c43 -20 39 -80 -7 -99 l-22 -9 22 0
c55 -2 72 -74 27 -110 -22 -17 -41 -21 -102 -21 -64 0 -73 2 -59 13 15 10 17
27 15 117 -2 78 -6 104 -15 103 -7 -2 -13 2 -13 7 0 14 123 13 154 -1z"/>
<path d="M3420 1174 c0 -43 1 -45 26 -42 37 4 51 29 36 62 -8 18 -19 26 -37
26 -23 0 -25 -4 -25 -46z"/>
<path d="M3420 1060 c0 -48 1 -50 28 -50 35 0 52 16 52 52 0 29 -23 48 -59 48
-18 0 -21 -6 -21 -50z m54 1 c3 -5 -1 -11 -9 -15 -9 -3 -15 0 -15 9 0 16 16
20 24 6z"/>
<path d="M3660 1252 c-9 -10 -10 -20 -3 -31 17 -29 16 -179 -1 -206 -15 -22
-14 -25 6 -40 29 -20 77 -19 107 1 16 12 20 19 12 27 -14 14 -15 176 -2 211 8
18 6 28 -5 37 -21 18 -98 18 -114 1z m98 -23 c-15 -8 -18 -25 -18 -114 0 -87
3 -106 17 -113 12 -7 3 -11 -36 -13 -52 -4 -75 4 -46 15 20 7 22 221 3 229 -7
3 12 6 42 6 42 0 51 -2 38 -10z"/>
<path d="M2210 1165 c0 -9 -6 -28 -14 -44 l-15 -27 35 0 c30 1 34 4 29 21 -4
11 -9 30 -12 43 -6 25 -23 30 -23 7z"/>
<path d="M110 1115 c-7 -13 -17 -22 -22 -19 -13 8 -10 -10 6 -31 13 -18 32
-19 417 -18 364 1 404 3 415 18 13 17 9 39 -9 62 -7 10 -102 13 -401 13 l-393
0 -13 -25z m806 -22 c0 -17 -26 -18 -403 -18 -222 0 -403 2 -403 6 0 26 36 29
415 29 365 0 391 -1 391 -17z"/>
<path d="M4952 1117 c-20 -21 -21 -25 -6 -45 l15 -22 399 0 c395 0 399 0 411
21 9 17 7 25 -12 45 l-22 24 -382 0 -382 0 -21 -23z m796 -19 c7 -7 12 -14 12
-18 0 -3 -180 -5 -400 -5 -374 0 -400 1 -400 18 0 16 25 17 388 17 288 0 391
-3 400 -12z"/>
<path d="M5502 1033 c37 -2 100 -2 140 0 40 1 10 3 -67 3 -77 0 -110 -1 -73
-3z"/>
<path d="M1599 895 c-3 -2 -141 -5 -307 -5 -191 -1 -302 -5 -302 -11 0 -6 -8
-9 -17 -8 -28 3 -83 -12 -83 -23 0 -5 -4 -7 -9 -3 -15 8 -137 -110 -161 -157
-42 -81 -56 -133 -59 -222 -2 -62 0 -86 8 -82 6 4 11 0 11 -9 0 -8 7 -32 17
-53 9 -20 15 -40 15 -45 -1 -4 2 -7 7 -7 5 0 13 -9 16 -21 10 -31 96 -109 128
-116 16 -3 31 -12 34 -19 3 -8 17 -14 32 -14 19 0 22 -3 12 -9 -9 -6 7 -11 50
-16 35 -3 929 -5 1987 -3 1455 2 1924 6 1930 15 4 6 21 15 37 19 54 13 144 83
183 143 52 77 65 105 66 140 1 17 5 31 10 31 13 0 -1 140 -20 196 -14 42 -30
68 -79 132 -26 33 -63 63 -105 84 -25 13 -47 26 -50 29 -12 14 -167 30 -305
30 -344 1 -524 -1 -538 -7 -9 -3 -21 -3 -27 1 -7 4 -130 8 -275 9 -145 0 -258
-2 -252 -6 7 -4 -1 -8 -18 -8 -19 0 -25 3 -17 8 7 5 -49 7 -125 5 -208 -6
-340 -5 -422 3 -55 5 -72 4 -67 -4 5 -8 -6 -10 -41 -6 -50 6 -664 9 -743 4
-25 -2 -130 -2 -235 -1 -104 1 -192 1 -195 0 -19 -6 -50 -5 -50 2 0 9 -33 13
-41 4z m3317 -52 c114 -38 213 -135 250 -245 22 -67 16 -210 -10 -250 -10 -16
-15 -28 -12 -28 4 0 -2 -10 -14 -22 -11 -12 -20 -27 -20 -32 -1 -6 -14 -22
-30 -36 -17 -13 -30 -30 -30 -38 0 -7 -4 -10 -10 -7 -5 3 -10 1 -10 -6 0 -7
-3 -9 -7 -6 -3 4 -21 -4 -38 -18 -18 -13 -35 -21 -39 -18 -3 4 -6 0 -6 -7 0
-7 -3 -11 -6 -7 -4 3 -18 0 -33 -7 -14 -8 -40 -12 -56 -9 -17 3 -25 1 -18 -4
6 -4 -194 -7 -445 -5 -252 1 -1121 3 -1932 5 l-1475 2 -66 34 c-83 41 -151
107 -187 180 -51 104 -41 259 23 361 47 74 132 139 218 165 34 11 405 14 1973
14 1768 1 1935 0 1980 -16z"/>
<path d="M970 821 c-168 -52 -281 -226 -252 -390 22 -121 91 -215 200 -268
l57 -28 1955 0 1955 0 55 26 c78 37 131 87 171 161 32 60 34 68 34 163 0 86
-4 107 -25 150 -31 64 -94 126 -162 162 l-53 28 -1955 2 c-1075 1 -1966 -2
-1980 -6z m1465 -14 c517 -1 942 -5 946 -9 3 -4 18 -4 35 1 33 9 564 8 580 -1
5 -4 16 -3 24 2 7 4 24 4 37 -1 12 -5 23 -5 23 -1 0 4 11 7 24 7 13 0 22 -3
19 -7 -5 -10 31 -11 40 -1 11 10 47 12 224 13 100 1 170 -3 183 -10 12 -6 20
-7 20 -1 0 5 38 11 85 13 49 2 85 -1 85 -6 0 -6 5 -5 11 1 14 14 125 -10 188
-41 27 -14 63 -40 80 -58 37 -40 80 -118 74 -135 -3 -7 0 -13 6 -13 10 0 10
-34 -1 -167 -1 -7 -5 -13 -10 -13 -4 0 -8 -7 -8 -16 0 -20 -57 -104 -76 -111
-8 -3 -11 -9 -9 -14 3 -5 -6 -11 -20 -15 -13 -3 -23 -9 -20 -13 5 -9 -60 -42
-95 -48 -21 -3 -3130 -7 -3520 -4 -69 1 -173 0 -233 -3 -59 -2 -110 1 -113 6
-3 5 -15 6 -26 2 -12 -4 -18 -2 -14 4 3 5 -6 10 -21 10 -15 0 -29 5 -31 11 -2
6 -11 11 -20 11 -21 0 -110 84 -120 112 -2 4 -9 23 -17 42 -8 18 -16 49 -18
67 -3 19 -8 43 -12 54 -6 16 -5 17 4 5 9 -11 10 -4 7 30 -4 47 27 150 45 150
5 0 9 5 9 10 0 19 77 87 127 111 40 20 69 24 173 29 69 3 186 4 260 2 74 -1
558 -4 1075 -5z"/>
<path d="M1346 753 c-2 -2 -72 -4 -156 -6 -195 -3 -188 4 -190 -182 -4 -264 0
-351 13 -369 12 -17 33 -18 268 -17 218 1 256 3 265 16 7 9 13 60 14 113 6
226 5 360 -2 355 -5 -2 -7 4 -6 14 3 39 -3 53 -27 59 -14 3 -23 9 -21 13 4 6
-152 10 -158 4z m179 -42 c3 -5 7 -122 10 -260 l4 -251 -260 0 -259 0 0 248
c0 180 3 251 12 260 15 15 484 17 493 3z"/>
<path d="M1050 460 l0 -230 65 0 65 0 0 230 0 230 -65 0 -65 0 0 -230z m100
179 c-5 -16 -4 -31 3 -38 7 -7 7 -17 -1 -35 -6 -13 -8 -39 -5 -57 10 -68 8
-234 -4 -247 -18 -18 -61 -15 -66 6 -4 14 -2 373 2 394 0 4 18 6 40 5 37 -1
38 -2 31 -28z"/>
<path d="M1205 625 l0 -65 153 0 152 0 0 65 0 65 -152 0 -153 0 0 -65z m96 21
c-6 -7 -6 -17 -1 -26 18 -27 10 -37 -27 -36 -36 1 -38 3 -41 35 -4 39 7 49 48
43 22 -3 28 -8 21 -16z m170 14 c6 0 9 -17 7 -37 -3 -35 -5 -38 -35 -39 -30 0
-31 1 -26 33 4 24 2 33 -8 34 -8 0 -5 4 6 9 11 5 26 7 33 4 8 -2 18 -4 23 -4z
m-71 -30 c0 -5 -18 -10 -40 -10 -22 0 -40 5 -40 10 0 6 18 10 40 10 22 0 40
-4 40 -10z"/>
<path d="M1355 532 l-150 -2 3 -68 3 -67 147 2 147 2 3 36 c2 19 2 50 0 68
l-3 32 -150 -3z m-56 -44 c-4 -34 9 -45 59 -54 37 -7 15 -12 -52 -13 l-76 -1
0 33 c0 19 3 37 7 40 12 12 64 8 62 -5z m179 -26 c-3 -36 -4 -37 -45 -38 -46
-1 -53 6 -27 27 8 7 13 20 11 29 -3 13 3 17 30 18 34 1 34 1 31 -36z m-78 8
c0 -5 -18 -10 -39 -10 -22 0 -43 5 -46 10 -4 6 12 10 39 10 25 0 46 -4 46 -10z"/>
<path d="M1205 300 l0 -70 153 0 152 0 0 70 0 70 -152 0 -153 0 0 -70z m95 25
c-21 -25 9 -55 56 -55 51 0 74 21 56 51 -11 18 -9 19 28 19 l40 0 0 -45 0 -44
-102 0 c-142 0 -150 3 -146 48 3 31 7 37 33 42 37 7 49 1 35 -16z m100 -17 c0
-9 -14 -12 -42 -11 -53 2 -50 1 -43 13 9 15 85 13 85 -2z"/>
<path d="M2597 678 c-15 -16 -17 -40 -18 -192 -1 -174 6 -216 35 -216 33 0 39
28 39 210 0 121 -3 183 -11 193 -7 8 -10 16 -7 19 3 2 -1 5 -7 4 -7 0 -21 -8
-31 -18z m33 -198 c0 -162 -2 -190 -15 -190 -13 0 -15 27 -15 183 0 101 3 187
7 190 19 20 23 -9 23 -183z"/>
<path d="M3750 693 c-14 -3 -29 -9 -35 -14 -7 -7 -3 -8 10 -3 16 6 18 5 8 -7
-20 -20 -18 -365 1 -385 19 -18 30 -18 47 4 12 14 15 51 13 187 -3 208 -2 195
-14 195 -6 0 -10 -70 -10 -190 0 -162 -2 -190 -15 -190 -13 0 -15 27 -15 183
0 167 2 184 19 199 11 9 23 13 27 10 4 -4 4 -1 0 6 -4 6 -8 11 -9 11 -1 -1
-13 -4 -27 -6z"/>
<path d="M3266 615 c-9 -9 -16 -22 -16 -28 0 -7 -4 -6 -10 3 -8 12 -10 9 -7
-12 1 -15 6 -30 10 -34 13 -13 7 -24 -12 -24 -10 0 -24 7 -31 15 -7 8 -16 13
-20 10 -4 -3 -7 7 -7 22 0 39 -29 56 -60 36 -17 -11 -23 -22 -19 -36 3 -12 -3
-31 -14 -44 -10 -13 -18 -30 -16 -36 1 -7 -3 -1 -8 11 -9 20 -16 23 -44 18
-28 -4 -32 -3 -22 9 8 10 8 18 -1 33 -18 29 -81 26 -110 -4 -12 -13 -27 -24
-33 -24 -6 0 -19 -12 -27 -26 -15 -24 -15 -30 -1 -65 8 -21 24 -42 36 -46 22
-7 119 -6 148 3 9 3 19 1 22 -5 3 -5 30 -7 59 -5 77 7 82 8 110 27 38 25 42
24 74 -4 21 -19 38 -25 64 -23 18 1 36 3 39 4 3 1 10 1 15 0 6 -2 41 -2 78 -1
58 1 71 4 87 23 24 29 25 76 1 107 -15 20 -21 22 -40 11 -13 -6 -25 -9 -29 -6
-3 3 -16 -1 -30 -10 -13 -9 -27 -12 -31 -8 -17 24 -81 5 -81 -25 0 -11 -3 -12
-12 -3 -8 8 -9 21 -1 47 7 23 8 35 1 35 -6 0 -8 6 -5 14 3 8 -5 24 -17 35 -22
20 -25 21 -40 6z m-114 -57 c-10 -10 -17 -7 -35 11 -12 13 -17 21 -10 17 6 -3
15 -1 18 5 5 7 12 6 23 -5 13 -12 14 -18 4 -28z m148 -34 l0 -75 38 3 c32 3
37 6 34 26 -3 17 2 22 18 22 16 0 20 -4 16 -16 -4 -9 -1 -23 5 -30 16 -19 42
2 34 27 -5 14 -1 19 14 19 16 0 21 -6 21 -24 0 -28 19 -45 30 -27 4 7 5 23 2
37 -3 17 0 24 12 24 20 0 23 -72 4 -88 -16 -13 -119 -13 -135 0 -7 6 -14 5
-18 -2 -9 -14 -78 -13 -93 2 -7 7 -12 44 -12 95 0 67 3 83 15 83 12 0 15 -15
15 -76z m-377 5 c-17 -17 -37 -1 -22 17 8 10 15 12 23 4 7 -7 7 -13 -1 -21z
m50 16 c8 -18 -11 -31 -25 -17 -11 11 -3 32 12 32 4 0 10 -7 13 -15z m216 -36
c28 -12 51 -27 51 -33 0 -6 -26 -23 -58 -39 -60 -28 -145 -37 -157 -17 -4 7
-12 7 -25 0 -10 -5 -45 -10 -78 -10 -45 0 -63 4 -76 19 -21 23 -18 76 4 76 11
0 14 -8 12 -28 l-4 -28 74 3 c69 3 73 4 70 26 -2 17 2 22 17 22 16 0 20 -6 18
-22 -2 -21 3 -23 50 -26 30 -2 63 3 78 10 l25 14 -30 11 c-24 9 -33 8 -43 -2
-8 -7 -19 -10 -27 -5 -9 6 -7 13 9 29 26 26 27 26 90 0z m-270 -10 c11 7 24 4
40 -8 20 -15 21 -19 7 -24 -9 -4 -16 -2 -16 2 0 5 -13 8 -30 7 -24 -2 -30 2
-29 18 0 12 3 15 6 9 3 -9 10 -10 22 -4z"/>
<path d="M4434 601 c-12 -13 -16 -41 -18 -102 -1 -80 7 -109 32 -109 5 0 7
-10 5 -23 -3 -14 3 -29 15 -41 24 -21 52 -11 90 33 22 24 31 26 107 28 89 1
105 6 105 29 0 8 5 14 10 14 6 0 10 18 10 40 0 22 -4 40 -10 40 -5 0 -10 6
-10 14 0 18 -33 29 -61 21 -15 -5 -19 -4 -15 4 4 6 2 11 -3 11 -6 0 -11 9 -11
20 0 18 -26 40 -49 40 -26 0 -38 -30 -35 -87 2 -32 1 -52 -2 -45 -3 6 -10 10
-15 6 -5 -3 -9 -1 -9 5 0 16 -40 24 -55 11 -11 -9 -14 -8 -14 7 1 27 -9 81
-16 93 -10 16 -34 12 -51 -9z m44 -96 c-3 -83 -5 -95 -20 -95 -16 0 -18 11
-18 95 0 89 1 95 21 95 19 0 20 -5 17 -95z m173 37 l-3 -54 32 23 c29 22 33
22 58 8 19 -10 28 -24 30 -46 5 -51 -28 -66 -132 -62 l-85 4 -5 -28 c-8 -41
-76 -62 -76 -22 0 7 11 16 25 19 28 7 41 41 31 86 -5 25 -2 30 14 30 15 0 20
-7 20 -25 0 -21 5 -25 30 -25 l30 0 0 76 c0 66 2 75 17 72 14 -3 17 -13 14
-56z"/>
<path d="M4672 474 c-33 -23 -27 -30 23 -26 36 3 45 8 45 23 0 24 -36 26 -68
3z"/>
<path d="M2333 581 c-6 -10 -9 -38 -6 -66 3 -32 1 -45 -6 -40 -6 3 -11 12 -11
19 0 7 -13 25 -30 41 -16 16 -30 24 -30 17 0 -6 -7 -9 -15 -6 -8 4 -31 -6 -49
-20 -21 -15 -37 -22 -41 -16 -10 16 -33 12 -55 -10 -11 -11 -24 -20 -29 -20
-5 0 -11 9 -14 20 -3 14 -14 20 -31 20 -14 0 -26 -4 -26 -9 0 -25 -34 -41 -80
-40 -27 1 -47 6 -44 10 8 14 -20 49 -39 49 -49 0 -59 -75 -17 -120 20 -22 33
-27 50 -23 18 5 22 3 17 -9 -12 -34 43 -69 68 -44 15 15 25 44 17 49 -4 2 -2
3 3 2 6 -1 19 1 30 5 12 4 29 1 45 -9 18 -12 22 -13 16 -2 -7 11 -3 13 22 8
17 -4 34 -2 37 2 2 5 20 6 37 2 41 -9 100 -7 116 3 7 4 12 3 12 -2 0 -7 53 -9
90 -3 3 1 17 12 31 25 21 19 26 32 23 57 -2 17 -9 38 -15 45 -6 7 -8 22 -4 34
14 43 -48 70 -72 31z m52 -11 c4 -6 1 -17 -5 -26 -10 -11 -16 -12 -26 -3 -11
9 -11 15 -3 25 14 17 25 18 34 4z m-117 -56 c14 -10 22 -25 22 -46 0 -23 4
-29 16 -24 9 3 27 6 41 6 22 0 24 3 18 29 -8 35 20 52 29 18 20 -74 1 -86
-136 -86 -62 0 -117 4 -124 10 -8 7 -14 7 -19 -1 -8 -13 -82 -13 -90 0 -4 7
-12 7 -25 0 -25 -13 -146 -13 -171 0 -24 14 -28 90 -4 90 10 0 15 -10 15 -30
l0 -30 80 0 c79 0 80 0 80 25 0 16 6 25 15 25 9 0 15 -9 15 -25 0 -22 4 -25
40 -25 36 0 40 3 40 25 0 16 6 25 15 25 9 0 15 -10 15 -26 l0 -26 27 32 c22
27 52 47 73 49 3 1 16 -6 28 -15z m-333 -134 c4 -6 1 -17 -5 -25 -9 -11 -15
-12 -25 -2 -9 8 -10 16 -3 25 13 15 25 15 33 2z"/>
<path d="M2193 464 l-28 -26 25 6 c14 3 35 6 48 6 15 0 22 6 22 20 0 28 -33
26 -67 -6z"/>
<path d="M4251 544 c-19 -6 -39 -18 -46 -27 -7 -9 -14 -14 -17 -11 -4 3 -5 -3
-4 -13 1 -15 -8 -18 -49 -20 -66 -4 -97 -11 -90 -23 3 -6 1 -10 -5 -10 -8 0
-8 -6 0 -20 8 -16 8 -18 -4 -14 -11 4 -14 17 -11 44 3 31 0 39 -19 48 -15 7
-26 6 -37 -2 -15 -12 -42 -99 -28 -90 5 3 9 -3 9 -14 0 -26 38 -58 84 -71 32
-8 46 -7 80 9 23 10 41 22 41 27 0 4 3 7 7 6 4 -2 4 5 1 15 -3 9 -3 14 1 10 4
-3 20 -3 36 2 16 5 32 4 38 -2 6 -6 12 -6 16 1 4 5 13 8 21 5 8 -4 18 1 21 10
3 9 12 16 20 16 7 0 28 9 45 19 36 22 47 66 18 68 -10 1 -34 12 -56 25 -33 21
-42 23 -72 12z m68 -35 c28 -12 50 -26 48 -32 -1 -5 -27 -22 -57 -38 -42 -22
-68 -29 -111 -29 -52 0 -57 -2 -63 -24 -11 -46 -105 -58 -148 -19 -27 25 -22
113 6 113 8 0 12 -17 12 -47 l-1 -48 49 0 c31 0 51 5 54 13 2 7 -6 12 -22 12
-19 0 -26 5 -26 20 0 19 7 20 99 20 54 0 113 5 131 11 l32 12 -31 13 c-25 11
-36 11 -51 2 -29 -18 -38 1 -11 23 29 24 27 24 90 -2z"/>
</g>
</svg>
